<?xml version="1.0" encoding="UTF-8"?>
<svg width="88px" height="88px" viewBox="0 0 88 88" version="1.1" xmlns="http://www.w3.org/2000/svg" xmlns:xlink="http://www.w3.org/1999/xlink">
    <!-- Generator: Sketch 52.6 (67491) - http://www.bohemiancoding.com/sketch -->
    <title>icons / Banana</title>
    <desc>Created with Sketch.</desc>
    <defs>
        <path d="M83.6667932,16.887 C83.2217932,17.104 81.7967932,17.603 81.5357932,17.855 C80.7507932,18.61 80.6727932,19.55 80.5837932,20.868 C80.5367932,22.264 80.1717932,25.027 79.9207932,27.484 C79.8367932,28.294 80.0587932,29.11 80.5387932,29.767 C82.2057932,32.047 83.2767932,34.451 82.7027932,40.908 C81.4657932,54.823 68.3447932,70.106 44.9847932,71.435 C43.7697932,71.504 42.5807932,71.538 41.4107932,71.538 C19.9687932,71.538 6.42179324,60.143 4.10879324,46.498 C3.75179324,44.397 3.23379324,44.386 4.13079324,43.273 C4.85079324,42.655 5.33579324,42.406 5.78079324,42.406 C6.48879324,42.406 7.09679324,43.036 8.39179324,43.81 C17.5047932,49.257 28.7017932,50.731 37.0167932,50.731 C39.2837932,50.731 41.3377932,50.621 43.0757932,50.453 C54.6057932,49.335 62.5967932,44.637 66.7187932,36.942 C69.5517932,31.655 71.8167932,29.885 75.6857932,28.522 C77.5227932,27.875 77.3337932,23.37 77.3187932,19.908 C77.3177932,19.692 75.6837932,19.327 75.5507932,19.156 C75.1627932,18.657 74.4227932,17.467 75.6307932,16.881 C77.4157932,16.014 79.9707932,15.635 81.5447932,15.635 C81.6927932,15.635 81.8317932,15.639 81.9617932,15.645 C83.4577932,15.722 84.5447932,16.459 83.6667932,16.887 Z M82.0967932,13.013 C83.9837932,13.11 86.1477932,13.931 86.5587932,15.946 C86.8317932,17.287 86.1337932,18.617 84.8217932,19.256 C84.5877932,19.37 84.2927932,19.489 83.9497932,19.627 C83.7857932,19.693 83.5387932,19.793 83.3317932,19.881 C83.2757932,20.153 83.2397932,20.658 83.2167932,21.004 C83.1777932,22.053 82.9967932,23.656 82.8047932,25.351 C82.7157932,26.146 82.6227932,26.965 82.5427932,27.753 C82.5257932,27.914 82.5707932,28.081 82.6667932,28.212 C84.8187932,31.155 85.9437932,34.214 85.3287932,41.141 C83.9677932,56.444 69.7247932,72.667 45.1347932,74.066 C43.8847932,74.137 42.6327932,74.173 41.4107932,74.173 C17.0377932,74.173 3.80879324,60.495 1.50979324,46.938 C1.42479324,46.438 1.32979324,46.09 1.24479324,45.783 C0.906793242,44.553 0.716793242,43.309 2.07779324,41.62 L2.22979324,41.43 L2.41479324,41.272 C3.22979324,40.573 4.34879324,39.77 5.78079324,39.771 C7.07279324,39.771 8.00379324,40.399 8.82579324,40.954 C9.10779324,41.144 9.39979324,41.342 9.74479324,41.548 C19.2747932,47.244 30.9217932,48.095 37.0167932,48.095 C39.0487932,48.095 41.0017932,48.006 42.8207932,47.829 C53.3717932,46.806 60.6307932,42.724 64.3957932,35.697 C67.2617932,30.349 69.8177932,27.893 74.3617932,26.199 C74.6597932,25.334 74.6967932,23.265 74.6937932,21.68 C74.2357932,21.488 73.8257932,21.232 73.4697932,20.774 C72.5007932,19.527 72.1397932,18.218 72.4267932,16.989 C72.6777932,15.91 73.4077932,15.03 74.4797932,14.509 C76.6287932,13.466 79.5767932,13 81.5447932,13 C81.7407932,13 81.9257932,13.004 82.0967932,13.013 Z M75.5657932,32.866 C72.6317932,33.399 71.0827932,36.435 71.0177932,36.564 C71.0037932,36.594 70.9907932,36.624 70.9787932,36.655 C67.3087932,46.7 57.7617932,53.573 44.7877932,55.51 C35.5657932,56.89 21.3617932,55.991 11.6827932,48.936 C11.2897932,48.649 10.7407932,48.736 10.4547932,49.128 C10.1697932,49.52 10.2557932,50.07 10.6477932,50.355 C18.2507932,55.898 28.4747932,57.809 37.1397932,57.809 C39.9937932,57.809 42.6797932,57.601 45.0467932,57.248 C58.6537932,55.216 68.6957932,47.952 72.6087932,37.314 C72.7707932,37.018 73.9707932,34.941 75.8797932,34.594 C76.3567932,34.507 76.6737932,34.05 76.5867932,33.573 C76.4997932,33.096 76.0457932,32.773 75.5657932,32.866 Z" id="path-1"></path>
    </defs>
    <g id="icons-/-Banana" stroke="none" stroke-width="1" fill="none" fill-rule="evenodd">
        <mask id="mask-2" fill="white">
            <use xlink:href="#path-1"></use>
        </mask>
        <use id="icon" fill="#FFFFFF" xlink:href="#path-1"></use>
        <rect id="Colors" fill="#363D46" fill-rule="nonzero" mask="url(#mask-2)" x="0" y="0" width="88" height="88"></rect>
    </g>
</svg>