<?xml version="1.0" encoding="UTF-8"?>
<svg width="88px" height="88px" viewBox="0 0 88 88" version="1.1" xmlns="http://www.w3.org/2000/svg" xmlns:xlink="http://www.w3.org/1999/xlink">
    <!-- Generator: Sketch 52.6 (67491) - http://www.bohemiancoding.com/sketch -->
    <title>icons / Cerejas</title>
    <desc>Created with Sketch.</desc>
    <defs>
        <path d="M70.109,23.287526 L53.083,18.496526 C56.526,17.150526 60.525,16.973526 64.4,18.064526 C68.716,19.278526 72.355,21.905526 74.56,25.358526 C70.878,27.154526 66.404,27.498526 62.087,26.283526 C58.256,25.205526 54.964,23.010526 52.729,20.116526 L69.66,24.880526 C69.735,24.902526 69.811,24.912526 69.885,24.912526 C70.246,24.912526 70.578,24.673526 70.681,24.308526 C70.805,23.868526 70.549,23.411526 70.109,23.287526 Z M25.909,76.759526 C18.003,76.759526 10,71.105526 10,60.298526 C10,55.415526 11.764,51.550526 14.966,49.415526 C17.417,47.781526 20.426,47.406526 23.364,48.319526 C23.282,48.768526 23.212,49.178526 23.151,49.560526 C23.076,50.026526 23.014,50.445526 22.966,50.802526 C22.06,50.481526 21.146,50.312526 20.254,50.312526 C18.853,50.312526 17.508,50.704526 16.344,51.480526 C13.854,53.141526 12.483,56.272526 12.483,60.298526 C12.483,67.244526 17.095,74.276526 25.909,74.276526 C34.723,74.276526 39.334,67.244526 39.334,60.298526 C39.334,56.272526 37.963,53.141526 35.473,51.480526 C33.443,50.127526 30.863,49.940526 28.394,50.968526 C28.066,51.104526 27.729,51.206526 27.39,51.286526 C27.216,52.437526 27.154,53.117526 27.147,53.190526 C28.486,52.970526 29.205,52.440526 29.205,52.188526 C29.205,51.788526 29.529,51.464526 29.929,51.464526 C30.329,51.464526 30.653,51.788526 30.653,52.188526 C30.653,53.864526 28.266,54.740526 25.909,54.740526 C23.551,54.740526 21.164,53.864526 21.164,52.188526 C21.164,51.788526 21.488,51.464526 21.888,51.464526 C22.288,51.464526 22.612,51.788526 22.612,52.188526 C22.612,52.261526 22.68,52.360526 22.798,52.466526 C23.086,52.726526 23.723,53.035526 24.675,53.191526 C24.671,53.129526 24.666,53.066526 24.671,53.002526 C24.683,52.854526 24.734,52.282526 24.856,51.373526 C24.903,51.018526 24.966,50.598526 25.037,50.145526 C25.098,49.765526 25.165,49.360526 25.244,48.917526 C26.766,40.452526 32.065,21.070526 49.496,11.159526 C49.588,11.106526 49.684,11.071526 49.782,11.044526 C50.316,10.897526 50.902,11.120526 51.188,11.624526 C51.527,12.220526 51.319,12.978526 50.723,13.317526 C49.026,14.282526 47.462,15.357526 45.997,16.502526 L49.508,17.490526 C49.531,17.473526 49.552,17.454526 49.577,17.439526 C54.025,14.797526 59.674,14.155526 65.073,15.674526 C70.473,17.193526 74.957,20.688526 77.374,25.261526 C77.684,25.846526 77.48,26.571526 76.911,26.908526 C74.047,28.609526 70.686,29.481526 67.213,29.481526 C65.293,29.481526 63.338,29.214526 61.415,28.673526 C56.02,27.155526 51.54,23.666526 49.121,19.100526 L47.118,18.536526 C54.503,29.723526 58.535,42.622526 60.21,48.956526 C60.636,48.926526 61.06,48.844526 61.466,48.675526 C64.713,47.323526 68.143,47.592526 70.877,49.415526 C74.079,51.550526 75.843,55.415526 75.843,60.298526 C75.843,71.105526 67.84,76.759526 59.934,76.759526 C52.029,76.759526 44.026,71.105526 44.026,60.298526 C44.026,55.415526 45.789,51.550526 48.992,49.415526 C50.942,48.114526 53.247,47.620526 55.587,47.926526 C55.722,48.395526 55.846,48.833526 55.958,49.243526 C56.095,49.741526 56.215,50.191526 56.319,50.593526 C55.635,50.412526 54.951,50.312526 54.279,50.312526 C52.878,50.312526 51.534,50.704526 50.369,51.480526 C47.88,53.141526 46.509,56.272526 46.509,60.298526 C46.509,67.244526 51.121,74.276526 59.934,74.276526 C68.748,74.276526 73.36,67.244526 73.36,60.298526 C73.36,56.272526 71.989,53.141526 69.499,51.480526 C67.468,50.127526 64.888,49.940526 62.42,50.968526 C61.901,51.183526 61.365,51.322526 60.824,51.398526 C61.018,52.219526 61.126,52.735526 61.15,52.853526 C61.174,52.967526 61.175,53.080526 61.167,53.191526 C62.509,52.972526 63.231,52.440526 63.231,52.188526 C63.231,51.788526 63.555,51.464526 63.955,51.464526 C64.355,51.464526 64.679,51.788526 64.679,52.188526 C64.679,53.864526 62.292,54.740526 59.934,54.740526 C57.576,54.740526 55.19,53.864526 55.19,52.188526 C55.19,51.788526 55.514,51.464526 55.914,51.464526 C56.314,51.464526 56.638,51.788526 56.638,52.188526 C56.638,52.247526 56.69,52.325526 56.767,52.407526 C57.018,52.675526 57.666,53.019526 58.683,53.188526 C58.621,52.902526 58.469,52.228526 58.219,51.227526 C58.114,50.805526 57.991,50.326526 57.85,49.795526 C57.731,49.346526 57.598,48.859526 57.453,48.341526 C55.525,41.450526 51.278,28.717526 43.947,18.285526 C43.935,18.269526 43.929,18.252526 43.918,18.235526 C43.507,18.605526 43.11,18.982526 42.718,19.363526 C33.008,28.807526 29.248,41.695526 27.878,48.521526 C30.994,47.367526 34.24,47.674526 36.851,49.415526 C40.053,51.550526 41.817,55.415526 41.817,60.298526 C41.817,71.105526 33.814,76.759526 25.909,76.759526 Z M34.845,65.830526 C34.43,65.637526 34.252,65.144526 34.445,64.730526 C35.021,63.499526 35.313,62.099526 35.313,60.569526 C35.313,58.241526 34.55,56.318526 33.165,55.154526 C32.816,54.860526 32.77,54.338526 33.064,53.988526 C33.358,53.638526 33.88,53.593526 34.23,53.887526 C35.996,55.370526 36.968,57.743526 36.968,60.569526 C36.968,62.343526 36.624,63.979526 35.945,65.431526 C35.804,65.732526 35.506,65.908526 35.195,65.908526 C35.077,65.908526 34.958,65.883526 34.845,65.830526 Z" id="path-1"></path>
    </defs>
    <g id="icons-/-Cerejas" stroke="none" stroke-width="1" fill="none" fill-rule="evenodd">
        <mask id="mask-2" fill="white">
            <use xlink:href="#path-1"></use>
        </mask>
        <use id="Fill-41" fill="#FFFFFF" xlink:href="#path-1"></use>
        <rect id="Colors" fill="#363D46" fill-rule="nonzero" mask="url(#mask-2)" x="0" y="0" width="88" height="88"></rect>
    </g>
</svg>