<?xml version="1.0" encoding="UTF-8"?>
<svg width="88px" height="88px" viewBox="0 0 88 88" version="1.1" xmlns="http://www.w3.org/2000/svg" xmlns:xlink="http://www.w3.org/1999/xlink">
    <!-- Generator: Sketch 52.6 (67491) - http://www.bohemiancoding.com/sketch -->
    <title>icons / Chocolates</title>
    <desc>Created with Sketch.</desc>
    <defs>
        <path d="M48.9998481,25.0693216 C48.2318487,24.7361816 47.2823516,24.1895325 46.8101029,22.8992497 C46.3409555,21.6162915 46.6604078,20.4837167 46.8934383,19.6550416 C47.0770848,19.0002473 47.1480742,18.6885151 47.0477631,18.4394427 C46.852373,17.9501747 46.6774057,17.6383345 46.4807286,17.4425954 C46.2575445,17.57213 45.9985455,17.646275 45.7224074,17.646275 L39.9998481,17.646275 L39.9998481,33.5453333 L48.9998481,33.5453333 L48.9998481,25.0693216 Z M51.9998481,30.1026308 L51.9998481,33.5453333 L61.8323704,33.5453333 L61.8323704,32.3721707 C61.667409,32.3631534 61.4610666,32.3635339 61.2055209,32.3671366 C60.1684582,32.390634 58.6144074,32.406299 57.3597467,31.0168192 C57.0649863,30.692555 56.6838041,30.7129194 55.6035304,30.940061 C54.6744951,31.1374392 53.4090317,31.4053096 52.4028339,30.5249402 C52.2472351,30.3889896 52.1140636,30.2475371 51.9998481,30.1026308 Z M64.8694074,32.0648207 L64.8694074,73.475 C64.8694074,74.3168 64.1906296,75 63.3508889,75 L25.5185185,75 C24.6787778,75 24,74.3168 24,73.475 L24,16.121275 C24,15.27795 24.6787778,14.596275 25.5185185,14.596275 L44.3306864,14.596275 C44.6131041,14.2329178 45.0508933,14 45.5430962,14 C48.6033572,14 49.5864062,16.4546954 49.908945,17.2614395 C50.4182169,18.5365653 50.095678,19.681672 49.8595611,20.5166131 C49.6851741,21.138511 49.5925792,21.5050705 49.703693,21.8089702 C49.7623365,21.9703191 49.8117204,22.0298458 50.5200713,22.3149476 C51.3487955,22.6470443 52.6003697,23.1483222 53.510886,24.6772199 C54.1868287,25.8097947 54.2747938,26.8139171 54.3396102,27.547036 C54.3519562,27.686454 54.3658455,27.8572017 54.3859077,27.9872207 C54.5664677,27.9590238 54.7979549,27.9104625 54.972342,27.8744332 C56.1467537,27.6253607 58.1035923,27.2118064 59.6314079,28.8973535 C59.9277115,29.2231841 60.2718558,29.248248 61.1607667,29.2357161 C62.139186,29.2231841 63.4941578,29.2012532 64.5744315,30.3526259 C65.0160766,30.824518 65.1128638,31.5034207 64.8694074,32.0648207 Z M48.9998481,36.8786667 L39.9998481,36.8786667 L39.9998481,52.7721667 L48.9998481,52.7721667 L48.9998481,36.8786667 Z M51.9998481,36.8786667 L51.9998481,52.7721667 L61.8323704,52.7721667 L61.8323704,36.8786667 L51.9998481,36.8786667 Z M27.037037,36.8786667 L27.037037,52.7721667 L36.9998481,52.7721667 L36.9998481,36.8786667 L27.037037,36.8786667 Z M27.037037,33.5453333 L36.9998481,33.5453333 L36.9998481,17.646275 L27.037037,17.646275 L27.037037,33.5453333 Z M48.9998481,56.1055 L39.9998481,56.1055 L39.9998481,71.95 L48.9998481,71.95 L48.9998481,56.1055 Z M51.9998481,56.1055 L51.9998481,71.95 L61.8323704,71.95 L61.8323704,56.1055 L51.9998481,56.1055 Z M27.037037,56.1055 L27.037037,71.95 L36.9998481,71.95 L36.9998481,56.1055 L27.037037,56.1055 Z" id="path-1"></path>
    </defs>
    <g id="icons-/-Chocolates" stroke="none" stroke-width="1" fill="none" fill-rule="evenodd">
        <mask id="mask-2" fill="white">
            <use xlink:href="#path-1"></use>
        </mask>
        <use id="Combined-Shape" fill="#FFFFFF" xlink:href="#path-1"></use>
        <rect id="Colors" fill="#363D46" fill-rule="nonzero" mask="url(#mask-2)" x="0" y="0" width="88" height="88"></rect>
    </g>
</svg>