<?xml version="1.0" encoding="UTF-8"?>
<svg width="88px" height="88px" viewBox="0 0 88 88" version="1.1" xmlns="http://www.w3.org/2000/svg" xmlns:xlink="http://www.w3.org/1999/xlink">
    <!-- Generator: Sketch 52.6 (67491) - http://www.bohemiancoding.com/sketch -->
    <title>icons / Laranja</title>
    <desc>Created with Sketch.</desc>
    <defs>
        <path d="M22.537351,53.8198709 C21.5743346,51.4795505 21.5952697,49.1028692 22.5913416,47.6153774 C23.349414,46.4848836 24.6066241,45.9119239 26.3299166,45.9119239 L38.8039537,45.9119239 C39.5730446,45.9119239 39.8749513,46.497004 39.9498771,46.6777067 C40.0248029,46.8573075 40.2242376,47.4853596 39.6810259,48.0296714 L30.8552121,56.855456 C29.6409741,58.06969 28.3518103,58.5534003 27.0130632,58.2933647 C25.2754467,57.9539962 23.5940245,56.3199589 22.6232952,54.0270179 L22.537351,53.8198709 Z M22.5913416,42.3838137 C21.5952697,40.8963219 21.5743346,38.5196406 22.537351,36.1793202 L22.6243971,35.9699695 C23.5940245,33.6792322 25.2754467,32.0451949 27.0130632,31.7058264 C27.2466553,31.6606507 27.4791455,31.637512 27.7105339,31.637512 C28.7980593,31.637512 29.853631,32.1421573 30.8552121,33.144837 L39.6810259,41.9706216 C40.2242376,42.5138315 40.0248029,43.1418836 39.9498771,43.3214845 C39.8760532,43.5021872 39.5730446,44.0872673 38.8039537,44.0872673 L26.3299166,44.0872673 C24.6066241,44.0872673 23.3483121,43.5143075 22.5913416,42.3838137 Z M30.7064624,28.0124394 C31.0458321,26.2748286 32.6798747,24.593412 34.9728233,23.6237877 L35.179971,23.5367419 C36.3280981,23.0651519 37.4839381,22.8293569 38.5406117,22.8293569 C39.6380537,22.8293569 40.6264126,23.0838833 41.384485,23.5907324 C42.5149825,24.3488022 43.0879442,25.6060083 43.0879442,27.329295 L43.0879442,39.8032909 C43.0879442,40.5723793 42.5017603,40.8753869 42.3221589,40.9503124 C42.1436593,41.024136 41.5145033,41.2257738 40.9701897,40.6803602 L32.1443759,31.8545756 C30.9301379,30.6403416 30.446426,29.3467746 30.7064624,28.0124394 Z M44.0002755,41.9838437 C44.2757379,42.2526941 44.6018853,42.4774706 44.9798196,42.6350345 C45.357754,42.7914966 45.7478087,42.8664222 46.1323541,42.8719314 C46.1378634,43.2553737 46.2094836,43.6432234 46.3648443,44.0200547 C46.521307,44.3979878 46.7471861,44.7241341 47.0160373,44.9995956 C46.7471861,45.275057 46.521307,45.6012033 46.3648443,45.9791364 C46.2083817,46.3570695 46.1367615,46.7471229 46.1323541,47.1316671 C45.7478087,47.1371763 45.357754,47.2076945 44.9798196,47.3652584 C44.6018853,47.5217205 44.2757379,47.746497 44.0002755,48.0153474 C43.7248132,47.746497 43.3986657,47.5217205 43.0207314,47.3652584 C42.6416952,47.2076945 42.2527424,47.1371763 41.8670951,47.1316671 C41.8626877,46.7471229 41.7910675,46.3570695 41.6346048,45.9791364 C41.4781422,45.6012033 41.253365,45.275057 40.9845137,44.9995956 C41.253365,44.7241341 41.4781422,44.3979878 41.6346048,44.0200547 C41.7910675,43.6432234 41.8615858,43.2553737 41.8670951,42.8719314 C42.2527424,42.8664222 42.6416952,42.7914966 43.0207314,42.6350345 C43.3986657,42.4774706 43.7248132,42.2526941 44.0002755,41.9838437 Z M44.9126068,27.329295 C44.9126068,25.6060083 45.4855685,24.3488022 46.616066,23.5907324 C47.3730366,23.0838833 48.3624973,22.8293569 49.4588375,22.8293569 C50.5155111,22.8293569 51.6724529,23.0651519 52.82058,23.5367419 L53.0299314,23.6248896 C55.3206763,24.593412 56.954719,26.2748286 57.2929868,28.0124394 C57.5541251,29.3478765 57.0704132,30.6403416 55.8550733,31.8545756 L47.0292595,40.6803602 C46.4860478,41.2257738 45.8579936,41.024136 45.6783922,40.9503124 C45.4976889,40.8753869 44.9126068,40.5723793 44.9126068,39.8032909 L44.9126068,27.329295 Z M60.2900171,31.637512 C60.5203037,31.637512 60.7527939,31.6606507 60.9874878,31.7058264 C62.7240025,32.0451949 64.4054247,33.6792322 65.3750521,35.9699695 L65.4620982,36.1793202 C66.4251146,38.5196406 66.4041795,40.8963219 65.4081076,42.3838137 C64.6511371,43.5143075 63.3928251,44.0872673 61.6695326,44.0872673 L49.1965973,44.0872673 C48.4275064,44.0872673 48.1244978,43.5021872 48.0495721,43.3214845 C47.9757482,43.1418836 47.7752116,42.5138315 48.3184233,41.9706216 L57.1442371,33.144837 C58.14692,32.1421573 59.2013899,31.637512 60.2900171,31.637512 Z M65.4081076,47.6153774 C66.4041795,49.1028692 66.4251146,51.4795505 65.4620982,53.8198709 L65.3750521,54.0292216 C64.4054247,56.3199589 62.7240025,57.9539962 60.9874878,58.2933647 C59.6531482,58.5511966 58.359577,58.06969 57.1442371,56.855456 L48.3184233,48.0296714 C47.7752116,47.4853596 47.9757482,46.8573075 48.0495721,46.6777067 C48.1244978,46.497004 48.4275064,45.9119239 49.1965973,45.9119239 L61.6695326,45.9119239 C63.3928251,45.9119239 64.6511371,46.4848836 65.4081076,47.6153774 Z M57.2929868,61.9867517 C56.954719,63.7243625 55.3206763,65.4057791 53.0299314,66.3754034 L52.82058,66.4624492 C50.4813537,67.4254624 48.1035627,67.4045273 46.616066,66.4084588 C45.4855685,65.6514907 44.9126068,64.3931829 44.9126068,62.6698961 L44.9126068,50.1959002 C44.9126068,49.4268118 45.4976889,49.1238043 45.6772903,49.0499806 C45.7621327,49.0147215 45.9461416,48.9519163 46.1742244,48.9519163 C46.4309553,48.9519163 46.7416768,49.0312492 47.0292595,49.318831 L55.8550733,58.1446155 C57.0704132,59.3588496 57.5541251,60.6524165 57.2929868,61.9867517 Z M43.0879442,62.6698961 C43.0879442,64.3931829 42.5149825,65.6503889 41.384485,66.4084588 C39.8969883,67.4034255 37.5191973,67.4232587 35.179971,66.4624492 L34.9728233,66.3754034 C32.6798747,65.4057791 31.0458321,63.7243625 30.7064624,61.9867517 C30.446426,60.6524165 30.9301379,59.3588496 32.1443759,58.1446155 L40.9701897,49.318831 C41.2577724,49.0312492 41.5695957,48.9519163 41.8252248,48.9519163 C42.0533076,48.9519163 42.2373165,49.0147215 42.3221589,49.0499806 C42.5017603,49.1238043 43.0879442,49.4268118 43.0879442,50.1959002 L43.0879442,62.6698961 Z M44,77 C26.3546372,77 12,62.6442644 12,45 C12,27.3546372 26.3546372,13 44,13 C61.6442644,13 76,27.3546372 76,45 C76,62.6442644 61.6442644,77 44,77 Z M44,15.7272602 C27.8594083,15.7272602 14.7272602,28.8594083 14.7272602,45 C14.7272602,61.1405917 27.8594083,74.2727398 44,74.2727398 C60.1405917,74.2727398 73.2727398,61.1405917 73.2727398,45 C73.2727398,28.8594083 60.1405917,15.7272602 44,15.7272602 Z M26.663777,60.0827622 C24.3036155,59.6232925 22.1660277,57.6256462 20.9451786,54.7399121 L20.8504195,54.5140337 C19.6416907,51.5743092 19.7254313,48.6158534 21.0762986,46.6005775 C21.4388071,46.0584693 21.980917,45.4722874 22.7555171,44.9995956 C21.980917,44.5269037 21.4388071,43.9407218 21.0762986,43.3986137 C19.7254313,41.3833378 19.6416907,38.4248819 20.8504195,35.4862592 L20.9451786,35.259279 C22.1660277,32.3735449 24.3036155,30.3758986 26.663777,29.915327 C27.3017478,29.7919203 28.0972831,29.7632723 28.9743552,29.9748267 C28.7628001,29.0966556 28.79255,28.301123 28.9159572,27.6631543 C29.3765302,25.3030007 31.375285,23.1654199 34.2599268,21.9445748 L34.4858059,21.8509179 C37.4255401,20.6421931 40.3840058,20.7259334 42.3992883,22.0756944 C42.9413982,22.4393035 43.5275821,22.9814116 44.0002755,23.7549074 C44.4729689,22.9814116 45.0591528,22.4393035 45.6012627,22.0756944 C47.6165453,20.7248315 50.5750109,20.6421931 53.5136433,21.8509179 L53.7406243,21.9445748 C56.625266,23.1654199 58.6240208,25.3030007 59.083492,27.6631543 C59.208001,28.301123 59.237751,29.0966556 59.025094,29.9737249 C59.903268,29.7621705 60.6988033,29.7919203 61.3356722,29.9164289 C63.6969355,30.3758986 65.8345233,32.3746468 67.0553725,35.259279 L67.1490297,35.4862592 C68.3588603,38.4248819 68.2740179,41.3833378 66.9242524,43.3986137 C66.5606421,43.9407218 66.0185322,44.5269037 65.2450339,44.9995956 C66.0185322,45.4722874 66.5606421,46.0584693 66.9242524,46.6005775 C68.2740179,48.6158534 68.3588603,51.5743092 67.1490297,54.5140337 L67.0542706,54.7421158 C65.8345233,57.6245443 63.6969355,59.6232925 61.3356722,60.0827622 C61.022747,60.1444656 60.671257,60.1852339 60.291119,60.1852339 C59.8977587,60.1852339 59.471343,60.1334471 59.0261959,60.0265681 C59.237751,60.9025355 59.208001,61.6980681 59.083492,62.334935 C58.6240208,64.6961904 56.6263679,66.8337712 53.7406243,68.0546163 L53.5136433,68.1493751 C52.133026,68.7168256 50.7480013,69 49.4588375,69 C48.0032944,69 46.6700566,68.6396964 45.6012627,67.9234967 C45.0591528,67.5609894 44.4729689,67.0177795 44.0002755,66.2442837 C43.5275821,67.0177795 42.9413982,67.5609894 42.3992883,67.9234967 C41.3304944,68.6396964 39.9961548,69 38.5406117,69 C37.2514479,69 35.8664232,68.7168256 34.4858059,68.1493751 L34.2599268,68.0546163 C31.3741832,66.8337712 29.3765302,64.6961904 28.9159572,62.3360368 C28.79255,61.6980681 28.7628001,60.9036373 28.9743552,60.0265681 C28.5281062,60.1334471 28.1016904,60.1852339 27.7094321,60.1852339 C27.329294,60.1852339 26.9778041,60.1444656 26.663777,60.0827622 Z" id="path-1"></path>
    </defs>
    <g id="icons-/-Laranja" stroke="none" stroke-width="1" fill="none" fill-rule="evenodd">
        <mask id="mask-2" fill="white">
            <use xlink:href="#path-1"></use>
        </mask>
        <use id="icon" fill="#FFFFFF" xlink:href="#path-1"></use>
        <rect id="Colors" fill="#363D46" fill-rule="nonzero" mask="url(#mask-2)" x="0" y="0" width="88" height="88"></rect>
    </g>
</svg>