<?xml version="1.0" encoding="UTF-8"?>
<svg width="88px" height="88px" viewBox="0 0 88 88" version="1.1" xmlns="http://www.w3.org/2000/svg" xmlns:xlink="http://www.w3.org/1999/xlink">
    <!-- Generator: Sketch 52.6 (67491) - http://www.bohemiancoding.com/sketch -->
    <title>icons / Kiwi</title>
    <desc>Created with Sketch.</desc>
    <defs>
        <path d="M44.148,16 C59.668,16 72.295,28.627 72.295,44.148 C72.295,59.668 59.668,72.296 44.148,72.296 C28.627,72.296 16,59.668 16,44.148 C16,28.627 28.627,16 44.148,16 Z M44.148,69.813 C58.299,69.813 69.812,58.299 69.812,44.148 C69.812,29.997 58.299,18.483 44.148,18.483 C29.996,18.483 18.483,29.997 18.483,44.148 C18.483,58.299 29.996,69.813 44.148,69.813 Z M48.608,50.043 C48.041,49.847 47.497,49.861 46.991,50.075 C46.528,50.29 46.152,50.703 45.932,51.241 L45.884,51.335 C45.781,51.493 45.643,51.597 45.482,51.646 L45.374,51.673 C45.337,51.679 45.301,51.681 45.265,51.681 C45.237,51.681 45.209,51.68 45.182,51.677 L45.005,51.633 L44.854,51.55 C44.82,51.525 44.779,51.495 44.739,51.45 C44.527,51.179 44.317,50.991 44.096,50.87 C43.869,50.716 43.655,50.654 43.359,50.593 C42.819,50.532 42.294,50.675 41.839,51.004 L41.574,50.681 L41.751,51.056 C41.648,51.108 41.544,51.133 41.437,51.133 C41.369,51.133 41.3,51.122 41.232,51.102 L41.12,51.062 C41.068,51.037 41.019,51.005 40.973,50.968 L40.835,50.813 L40.761,50.672 C40.745,50.626 40.728,50.58 40.72,50.52 C40.652,49.904 40.409,49.401 40.029,49.074 C39.605,48.725 39.097,48.558 38.524,48.59 L38.438,48.588 C38.226,48.567 38.063,48.478 37.948,48.335 L37.884,48.251 C37.854,48.201 37.829,48.146 37.81,48.086 L37.778,47.915 L37.796,47.727 C37.806,47.679 37.818,47.635 37.835,47.593 C38.118,47.017 38.185,46.462 38.038,45.986 C37.887,45.484 37.532,45.051 37.038,44.765 L36.951,44.703 C36.813,44.588 36.727,44.44 36.694,44.276 L36.678,44.133 C36.68,44.077 36.689,44.019 36.706,43.958 L36.792,43.771 L36.894,43.645 C36.919,43.62 36.959,43.581 37.018,43.545 C37.532,43.243 37.887,42.809 38.039,42.304 C38.185,41.832 38.118,41.276 37.852,40.74 L37.815,40.65 C37.761,40.471 37.771,40.3 37.835,40.144 L37.885,40.042 C37.915,39.992 37.953,39.945 37.995,39.902 L38.135,39.794 C38.201,39.756 38.252,39.745 38.269,39.741 C38.371,39.716 38.42,39.705 38.481,39.705 C39.082,39.737 39.604,39.569 40.029,39.22 C40.409,38.892 40.652,38.389 40.714,37.802 L41.131,37.821 L40.732,37.707 C40.785,37.522 40.887,37.382 41.029,37.288 L41.126,37.229 C41.177,37.204 41.233,37.186 41.291,37.174 L41.466,37.158 L41.677,37.206 C41.705,37.217 41.753,37.236 41.805,37.27 C42.294,37.618 42.825,37.759 43.36,37.7 C43.655,37.639 43.868,37.577 44.06,37.445 C44.317,37.302 44.527,37.115 44.705,36.88 L44.766,36.814 C44.93,36.673 45.093,36.614 45.262,36.614 L45.374,36.62 C45.434,36.629 45.493,36.646 45.549,36.669 L45.829,36.885 C45.85,36.912 45.884,36.955 45.912,37.014 C46.152,37.59 46.528,38.004 46.991,38.219 C47.496,38.433 48.041,38.447 48.57,38.26 L48.675,38.233 C48.852,38.202 49.032,38.236 49.186,38.337 L49.279,38.407 C49.326,38.45 49.367,38.498 49.4,38.548 L49.48,38.72 L49.511,38.884 C49.514,38.914 49.518,38.965 49.51,39.027 C49.401,39.65 49.492,40.2 49.765,40.617 C50.074,41.072 50.526,41.38 51.074,41.509 L51.003,41.92 L51.167,41.539 C51.364,41.625 51.495,41.756 51.559,41.921 L51.595,42.02 C51.608,42.073 51.616,42.129 51.617,42.186 L51.537,42.528 C51.499,42.594 51.478,42.629 51.451,42.661 C51.022,43.133 50.798,43.653 50.809,44.173 C50.798,44.641 51.022,45.161 51.428,45.602 L51.492,45.685 C51.589,45.833 51.628,46 51.611,46.166 L51.593,46.278 C51.578,46.337 51.555,46.394 51.525,46.447 L51.385,46.621 L51.261,46.706 C51.212,46.733 51.171,46.754 51.117,46.771 C50.526,46.914 50.074,47.222 49.765,47.676 C49.492,48.094 49.401,48.644 49.507,49.226 L49.515,49.313 C49.518,49.511 49.46,49.674 49.354,49.806 L49.278,49.887 C49.236,49.926 49.189,49.96 49.134,49.99 L48.775,50.07 C48.72,50.066 48.668,50.062 48.608,50.043 Z M46.809,48.671 C47.21,48.554 47.641,48.512 48.099,48.542 C48.133,48.069 48.259,47.665 48.428,47.297 L48.372,47.261 C48.372,47.261 48.605,46.918 48.606,46.915 L48.831,46.573 L48.879,46.603 C49.154,46.287 49.472,46.004 49.87,45.785 C49.64,45.37 49.501,44.964 49.429,44.561 C49.429,44.561 49.422,44.154 49.422,44.141 C49.422,44.141 49.429,43.733 49.448,43.733 C49.501,43.33 49.64,42.924 49.87,42.508 C49.472,42.29 49.154,42.006 48.879,41.69 L48.831,41.721 C48.831,41.721 48.606,41.378 48.605,41.376 L48.372,41.032 L48.428,40.996 C48.259,40.628 48.133,40.224 48.099,39.751 C47.642,39.787 47.211,39.741 46.798,39.648 C46.798,39.648 46.427,39.486 46.426,39.485 C46.426,39.485 46.039,39.317 46.054,39.284 C45.72,39.07 45.41,38.774 45.119,38.387 C44.74,38.67 44.353,38.869 43.968,39.022 C43.968,39.022 43.559,39.073 43.558,39.073 C43.558,39.073 43.148,39.131 43.143,39.098 C42.73,39.095 42.304,39.013 41.871,38.853 C41.704,39.299 41.488,39.674 41.25,40.007 C41.25,40.007 40.931,40.272 40.929,40.274 L40.617,40.54 L40.58,40.497 C40.227,40.723 39.842,40.906 39.395,41.003 C39.494,41.464 39.514,41.896 39.495,42.306 C39.495,42.306 39.367,42.701 39.366,42.704 C39.366,42.704 39.247,43.096 39.218,43.088 C39.041,43.479 38.797,43.83 38.477,44.147 C38.796,44.464 39.041,44.815 39.247,45.197 C39.247,45.197 39.366,45.589 39.367,45.592 C39.367,45.592 39.495,45.987 39.456,45.999 C39.514,46.398 39.494,46.829 39.395,47.29 C39.842,47.388 40.227,47.571 40.58,47.796 L40.617,47.753 C40.617,47.753 40.929,48.019 40.931,48.021 C40.931,48.021 41.25,48.287 41.225,48.316 C41.488,48.619 41.704,48.995 41.871,49.44 C42.305,49.28 42.729,49.198 43.148,49.162 C43.148,49.162 43.558,49.22 43.559,49.221 C43.559,49.221 43.968,49.271 43.963,49.31 C44.353,49.424 44.74,49.623 45.119,49.907 C45.41,49.52 45.72,49.224 46.039,48.976 C46.039,48.976 46.426,48.808 46.427,48.808 C46.427,48.808 46.798,48.646 46.809,48.671 Z M43.797,53.561 C43.943,53.218 44.352,53.218 44.498,53.561 C44.847,54.386 45.331,55.568 45.331,56.522 C45.331,58.014 44.254,58.092 44.148,58.092 C44.041,58.092 42.964,58.014 42.964,56.522 C42.964,55.568 43.448,54.386 43.797,53.561 Z M44.498,34.734 C44.352,35.078 43.943,35.078 43.797,34.734 C43.448,33.91 42.964,32.727 42.964,31.773 C42.964,30.282 44.041,30.203 44.148,30.203 C44.254,30.203 45.331,30.282 45.331,31.773 C45.331,32.727 44.847,33.91 44.498,34.734 Z M56.522,42.964 C58.014,42.964 58.092,44.041 58.092,44.148 C58.092,44.254 58.014,45.332 56.522,45.332 C55.568,45.332 54.385,44.847 53.561,44.498 C53.218,44.353 53.218,43.943 53.561,43.797 C54.385,43.448 55.568,42.964 56.522,42.964 Z M34.734,44.498 C33.91,44.847 32.727,45.332 31.773,45.332 C30.281,45.332 30.203,44.254 30.203,44.148 C30.203,44.041 30.281,42.964 31.773,42.964 C32.727,42.964 33.91,43.448 34.734,43.797 C35.077,43.943 35.077,44.353 34.734,44.498 Z M51.052,50.556 C51.881,50.892 53.06,51.386 53.735,52.061 C54.79,53.116 54.083,53.933 54.008,54.008 C53.932,54.083 53.115,54.79 52.061,53.735 C51.386,53.06 50.892,51.882 50.556,51.052 C50.416,50.706 50.706,50.416 51.052,50.556 Z M37.243,37.739 C36.414,37.403 35.235,36.909 34.56,36.235 C33.506,35.18 34.212,34.363 34.288,34.288 C34.363,34.212 35.18,33.506 36.235,34.561 C36.909,35.235 37.403,36.414 37.739,37.243 C37.879,37.589 37.589,37.879 37.243,37.739 Z M51.052,37.739 C50.706,37.879 50.416,37.589 50.556,37.243 C50.892,36.414 51.386,35.235 52.061,34.561 C53.115,33.506 53.932,34.212 54.008,34.288 C54.083,34.363 54.79,35.18 53.735,36.235 C53.06,36.909 51.881,37.403 51.052,37.739 Z M37.243,50.556 C37.589,50.416 37.879,50.706 37.739,51.052 C37.403,51.882 36.909,53.06 36.235,53.735 C35.18,54.79 34.363,54.083 34.288,54.008 C34.212,53.933 33.506,53.116 34.56,52.061 C35.235,51.386 36.414,50.892 37.243,50.556 Z M48.084,52.706 C48.723,53.333 49.624,54.239 49.99,55.12 C50.563,56.498 49.598,56.983 49.5,57.024 C49.401,57.065 48.376,57.406 47.804,56.029 C47.438,55.148 47.431,53.87 47.437,52.975 C47.44,52.602 47.818,52.445 48.084,52.706 Z M40.211,35.59 C39.572,34.963 38.671,34.056 38.305,33.175 C37.732,31.798 38.697,31.312 38.796,31.271 C38.894,31.231 39.919,30.889 40.491,32.267 C40.858,33.148 40.864,34.426 40.858,35.321 C40.856,35.694 40.477,35.851 40.211,35.59 Z M52.706,40.211 C53.333,39.572 54.239,38.671 55.12,38.305 C56.497,37.733 56.983,38.698 57.024,38.796 C57.065,38.894 57.406,39.919 56.029,40.492 C55.148,40.858 53.87,40.864 52.975,40.858 C52.602,40.856 52.444,40.477 52.706,40.211 Z M35.589,48.084 C34.962,48.723 34.056,49.624 33.175,49.99 C31.798,50.563 31.312,49.598 31.271,49.5 C31.23,49.402 30.889,48.376 32.266,47.804 C33.147,47.438 34.425,47.431 35.32,47.437 C35.693,47.44 35.851,47.818 35.589,48.084 Z M56.038,47.775 C57.416,48.344 57.077,49.37 57.037,49.468 C56.996,49.567 56.513,50.533 55.134,49.964 C54.252,49.6 53.344,48.701 52.715,48.064 C52.453,47.798 52.61,47.419 52.983,47.416 C53.878,47.407 55.156,47.411 56.038,47.775 Z M32.258,40.521 C30.879,39.951 31.218,38.925 31.258,38.827 C31.299,38.729 31.782,37.763 33.161,38.332 C34.043,38.696 34.951,39.595 35.58,40.232 C35.842,40.498 35.685,40.876 35.312,40.88 C34.417,40.888 33.139,40.885 32.258,40.521 Z M48.063,35.58 C47.798,35.842 47.419,35.686 47.416,35.313 C47.407,34.418 47.411,33.14 47.775,32.258 C48.344,30.879 49.37,31.218 49.468,31.258 C49.566,31.299 50.533,31.782 49.963,33.161 C49.599,34.043 48.7,34.951 48.063,35.58 Z M40.232,52.716 C40.497,52.454 40.876,52.61 40.88,52.983 C40.888,53.878 40.884,55.156 40.52,56.038 C39.951,57.417 38.925,57.078 38.827,57.037 C38.729,56.996 37.762,56.513 38.332,55.134 C38.696,54.252 39.595,53.344 40.232,52.716 Z M44.148,66.352 C31.904,66.352 21.943,56.391 21.943,44.148 C21.943,31.904 31.904,21.943 44.148,21.943 C56.391,21.943 66.352,31.904 66.352,44.148 C66.352,56.391 56.391,66.352 44.148,66.352 Z M44.148,20.288 C30.991,20.288 20.288,30.991 20.288,44.148 C20.288,57.304 30.991,68.007 44.148,68.007 C57.303,68.007 68.007,57.304 68.007,44.148 C68.007,30.991 57.303,20.288 44.148,20.288 Z" id="path-1"></path>
    </defs>
    <g id="icons-/-Kiwi" stroke="none" stroke-width="1" fill="none" fill-rule="evenodd">
        <mask id="mask-2" fill="white">
            <use xlink:href="#path-1"></use>
        </mask>
        <use id="icon" fill="#FFFFFF" xlink:href="#path-1"></use>
        <rect id="Colors" fill="#363D46" fill-rule="nonzero" mask="url(#mask-2)" x="0" y="0" width="88" height="88"></rect>
    </g>
</svg>