<?xml version="1.0" encoding="UTF-8"?>
<svg width="88px" height="88px" viewBox="0 0 88 88" version="1.1" xmlns="http://www.w3.org/2000/svg" xmlns:xlink="http://www.w3.org/1999/xlink">
    <!-- Generator: Sketch 52.6 (67491) - http://www.bohemiancoding.com/sketch -->
    <title>icons / Maça</title>
    <desc>Created with Sketch.</desc>
    <defs>
        <path d="M50.668,16.834 C53.858,14.625 57.765,13.851 61.533,14.652 C60.959,18.462 58.862,21.848 55.673,24.057 C52.816,26.036 49.383,26.854 45.989,26.428 L58.854,17.514 C59.23,17.254 59.324,16.738 59.063,16.363 C58.803,15.987 58.286,15.892 57.912,16.154 L45.046,25.068 C45.84,21.741 47.811,18.814 50.668,16.834 Z M36.952,77.904 C24.767,77.904 16.957,58.35 16.765,47.702 C16.65,41.261 18.927,35.786 23.012,32.682 C25.564,30.742 28.558,29.717 31.671,29.717 C35.418,29.717 38.768,30.597 41.361,32.26 C41.457,32.784 41.519,33.292 41.557,33.78 C41.594,34.251 41.609,34.701 41.607,35.12 C41.065,34.92 40.532,34.678 40.028,34.354 C37.836,32.945 34.946,32.2 31.671,32.2 C29.105,32.2 26.631,33.05 24.514,34.659 C21.066,37.278 19.147,42.016 19.248,47.658 C19.345,53.061 21.412,60.097 24.514,65.581 C26.592,69.256 30.971,75.421 36.952,75.421 C40.724,75.421 43.235,73.422 43.508,73.194 C43.739,73.002 44.021,72.906 44.303,72.906 C44.585,72.906 44.867,73.002 45.097,73.194 C45.544,73.566 47.954,75.421 51.534,75.421 C57.515,75.421 61.894,69.256 63.972,65.581 C67.074,60.097 69.141,53.061 69.238,47.658 C69.339,42.016 67.42,37.278 63.972,34.659 C61.856,33.05 59.381,32.2 56.815,32.2 C53.537,32.2 50.771,32.916 48.593,34.326 C47.624,34.953 46.57,35.346 45.494,35.517 C45.468,37 45.293,38.098 45.22,38.488 C47.284,38.291 48.514,37.503 48.514,37.045 C48.514,36.588 48.885,36.218 49.342,36.218 C49.799,36.218 50.169,36.588 50.169,37.045 C50.169,38.838 47.622,40.191 44.243,40.191 C40.865,40.191 38.317,38.838 38.317,37.045 C38.317,36.588 38.687,36.218 39.145,36.218 C39.602,36.218 39.972,36.588 39.972,37.045 C39.972,37.331 40.464,37.742 41.325,38.061 C41.72,38.208 42.194,38.331 42.741,38.415 C42.737,38.314 42.742,38.211 42.765,38.107 C42.796,37.97 43.007,36.96 43.048,35.509 C43.06,35.117 43.056,34.691 43.036,34.244 C43.017,33.831 42.981,33.4 42.924,32.954 C42.461,29.354 40.576,24.877 34.415,23.001 C33.758,22.802 33.389,22.108 33.588,21.452 C33.788,20.797 34.481,20.426 35.137,20.626 C35.679,20.791 36.184,20.979 36.672,21.177 C39.269,22.228 41.124,23.713 42.437,25.383 C43.213,21.097 45.635,17.301 49.254,14.793 C53.346,11.958 58.442,11.13 63.234,12.521 C63.798,12.685 64.17,13.222 64.126,13.808 C63.744,18.784 61.179,23.263 57.087,26.098 C54.297,28.031 51.041,29.031 47.732,29.031 C46.598,29.031 45.458,28.911 44.328,28.673 C44.919,30.154 45.232,31.646 45.381,33.012 C46.022,32.873 46.652,32.625 47.244,32.242 C49.83,30.567 53.051,29.717 56.815,29.717 C59.928,29.717 62.922,30.742 65.474,32.682 C69.56,35.786 71.836,41.261 71.721,47.702 C71.529,58.35 63.719,77.904 51.534,77.904 C48.128,77.904 45.599,76.574 44.292,75.687 C43.026,76.519 40.399,77.904 36.952,77.904 Z M60.121,60.561 C59.703,60.375 59.515,59.886 59.7,59.469 C61.19,56.114 62.111,52.361 62.165,49.43 C62.24,45.4 60.826,42.012 58.287,40.135 C57.919,39.863 57.841,39.345 58.113,38.977 C58.385,38.609 58.904,38.532 59.27,38.804 C62.247,41.003 63.905,44.888 63.82,49.461 C63.761,52.648 62.811,56.54 61.213,60.14 C61.076,60.449 60.773,60.633 60.456,60.633 C60.344,60.633 60.23,60.609 60.121,60.561 Z" id="path-1"></path>
    </defs>
    <g id="icons-/-Maça" stroke="none" stroke-width="1" fill="none" fill-rule="evenodd">
        <g id="Group">
            <mask id="mask-2" fill="white">
                <use xlink:href="#path-1"></use>
            </mask>
            <use id="Fill-21" fill="#FFFFFF" xlink:href="#path-1"></use>
            <rect id="Colors" fill="#363D46" fill-rule="nonzero" mask="url(#mask-2)" x="0" y="0" width="88" height="88"></rect>
        </g>
    </g>
</svg>