<?xml version="1.0" encoding="UTF-8"?>
<svg width="88px" height="88px" viewBox="0 0 88 88" version="1.1" xmlns="http://www.w3.org/2000/svg" xmlns:xlink="http://www.w3.org/1999/xlink">
    <!-- Generator: Sketch 52.6 (67491) - http://www.bohemiancoding.com/sketch -->
    <title>icons / Morangos</title>
    <desc>Created with Sketch.</desc>
    <defs>
        <path d="M32.43,31.2590192 C32.723,31.2380192 33.018,31.2270192 33.316,31.2270192 C32.985,31.5120192 32.653,31.8050192 32.333,32.1040192 C29.974,34.3070192 28.319,36.7290192 28.211,36.8890192 C28.065,37.1040192 28.03,37.3760192 28.115,37.6210192 C28.2,37.8670192 28.394,38.0590192 28.642,38.1390192 C31.359,39.0210192 39.804,37.5730192 43.717,33.9820192 C46.884,36.8890192 53.02,38.3910192 56.684,38.3900192 C57.548,38.3900192 58.274,38.3070192 58.792,38.1390192 C59.04,38.0590192 59.234,37.8670192 59.319,37.6210192 C59.404,37.3760192 59.368,37.1040192 59.223,36.8890192 C59.115,36.7290192 57.46,34.3070192 55.101,32.1040192 C54.781,31.8050192 54.449,31.5120192 54.105,31.2270192 C60.642,31.2270192 65.95,36.5340192 65.95,43.0580192 C65.95,44.0600192 65.81,45.0900192 65.524,46.1670192 C64.319,52.0040192 56.292,67.0750192 52.661,71.8590192 C49.756,75.6870192 46.194,76.4900192 43.717,76.4900192 C41.24,76.4900192 37.678,75.6870192 34.772,71.8590192 C31.14,67.0730192 23.113,52.0010192 21.899,46.1180192 C21.623,45.0900192 21.483,44.0610192 21.483,43.0580192 C21.483,36.8960192 26.291,31.7130192 32.43,31.2590192 Z M41.811,27.3520192 C42.068,27.4810192 42.373,27.4680192 42.617,27.3160192 C42.862,27.1660192 43.011,26.8990192 43.011,26.6120192 C43.011,20.7220192 40.962,16.0050192 39.072,13.5350192 C39.487,13.1390192 40.351,12.6050192 40.769,12.5040192 C42.277,14.0530192 44.528,19.0430192 44.554,26.5720192 C44.555,26.8570192 44.703,27.1220192 44.946,27.2720192 C45.187,27.4230192 45.49,27.4380192 45.747,27.3110192 C49.538,25.4450192 56.359,26.5860192 59.39,27.2350192 C57.679,28.2320192 54.441,28.8330192 50.27,28.8880192 L50.135,28.8900192 C49.735,28.8900192 49.325,29.1770192 49.253,29.5710192 C49.196,29.8830192 49.328,30.1860192 49.569,30.3710192 C49.633,30.4200192 49.701,30.4660192 49.78,30.4950192 C50.074,30.6040192 50.367,30.7400192 50.658,30.8880192 C51.008,31.0660192 51.354,31.2690192 51.694,31.4940192 C52.02,31.7080192 52.34,31.9370192 52.652,32.1820192 C54.529,33.6490192 56.146,35.5610192 57.058,36.7390192 C54.28,36.8370192 48.857,35.7440192 45.668,33.4370192 C45.36,33.2140192 45.074,32.9810192 44.813,32.7360192 C44.646,32.5800192 44.484,32.4210192 44.339,32.2560192 C44.183,32.0770192 43.955,31.9740192 43.717,31.9740192 C43.479,31.9740192 43.251,32.0770192 43.095,32.2560192 C42.95,32.4210192 42.788,32.5800192 42.621,32.7360192 C42.36,32.9810192 42.074,33.2140192 41.767,33.4370192 C38.578,35.7450192 33.154,36.8420192 30.376,36.7390192 C31.288,35.5610192 32.904,33.6490192 34.781,32.1820192 C35.094,31.9380192 35.414,31.7080192 35.74,31.4940192 C36.08,31.2700192 36.426,31.0660192 36.776,30.8880192 C37.068,30.7390192 37.361,30.6030192 37.656,30.4940192 C37.737,30.4640192 37.804,30.4180192 37.867,30.3670192 C38.094,30.1850192 38.202,29.8870192 38.15,29.5790192 C38.084,29.1870192 37.713,28.8970192 37.315,28.8900192 L37.164,28.8880192 C32.997,28.8330192 29.76,28.2330192 28.047,27.2370192 C31.106,26.5880192 38.016,25.4430192 41.811,27.3520192 Z M19,43.0580192 C19,37.1910192 22.603,32.0580192 27.759,29.8700192 C26.477,29.3100192 25.536,28.5960192 24.942,27.7280192 C24.638,27.2850192 24.568,26.7220192 24.754,26.2190192 C24.94,25.7150192 25.359,25.3330192 25.878,25.1940192 C26.275,25.0870192 34.484,22.9220192 40.404,24.2680192 C39.959,20.0620192 38.391,16.5420192 36.833,14.7130192 C36.714,14.5720192 36.618,14.4120192 36.551,14.2390192 C36.137,13.1710192 36.708,12.0930192 38.249,11.0340192 C40.415,9.54601921 41.644,9.93601921 42.294,10.5250192 C44.346,12.3910192 46.538,17.3850192 46.943,24.2840192 C52.871,22.8840192 61.162,25.0870192 61.559,25.1940192 C62.076,25.3350192 62.494,25.7170192 62.68,26.2200192 C62.865,26.7240192 62.795,27.2850192 62.491,27.7280192 C61.898,28.5950192 60.958,29.3090192 59.679,29.8680192 C64.818,32.0420192 68.433,37.1360192 68.433,43.0580192 C68.433,44.2620192 68.269,45.4920192 67.946,46.7160192 C66.629,52.9760192 58.473,68.3090192 54.639,73.3600192 C51.892,76.9800192 48.014,78.9730192 43.717,78.9730192 C39.421,78.9730192 35.542,76.9800192 32.794,73.3600192 C28.959,68.3070192 20.804,52.9740192 19.488,46.7150192 C19.164,45.4920192 19,44.2620192 19,43.0580192 Z M38.855,48.1880192 C39.788,48.1880192 40.544,46.9360192 40.544,45.3920192 C40.544,43.8480192 39.788,42.5960192 38.855,42.5960192 C37.921,42.5960192 37.165,43.8480192 37.165,45.3920192 C37.165,46.9360192 37.921,48.1880192 38.855,48.1880192 Z M48.579,48.1880192 C49.512,48.1880192 50.269,46.9360192 50.269,45.3920192 C50.269,43.8480192 49.512,42.5960192 48.579,42.5960192 C47.646,42.5960192 46.889,43.8480192 46.889,45.3920192 C46.889,46.9360192 47.646,48.1880192 48.579,48.1880192 Z M29.13,48.1880192 C30.063,48.1880192 30.82,46.9360192 30.82,45.3920192 C30.82,43.8480192 30.063,42.5960192 29.13,42.5960192 C28.197,42.5960192 27.441,43.8480192 27.441,45.3920192 C27.441,46.9360192 28.197,48.1880192 29.13,48.1880192 Z M58.303,48.1880192 C59.237,48.1880192 59.993,46.9360192 59.993,45.3920192 C59.993,43.8480192 59.237,42.5960192 58.303,42.5960192 C57.37,42.5960192 56.614,43.8480192 56.614,45.3920192 C56.614,46.9360192 57.37,48.1880192 58.303,48.1880192 Z M43.717,55.8850192 C44.65,55.8850192 45.406,54.6330192 45.406,53.0890192 C45.406,51.5450192 44.65,50.2930192 43.717,50.2930192 C42.784,50.2930192 42.027,51.5450192 42.027,53.0890192 C42.027,54.6330192 42.784,55.8850192 43.717,55.8850192 Z M53.441,55.8850192 C54.374,55.8850192 55.131,54.6330192 55.131,53.0890192 C55.131,51.5450192 54.374,50.2930192 53.441,50.2930192 C52.508,50.2930192 51.751,51.5450192 51.751,53.0890192 C51.751,54.6330192 52.508,55.8850192 53.441,55.8850192 Z M33.992,55.8850192 C34.926,55.8850192 35.682,54.6330192 35.682,53.0890192 C35.682,51.5450192 34.926,50.2930192 33.992,50.2930192 C33.059,50.2930192 32.303,51.5450192 32.303,53.0890192 C32.303,54.6330192 33.059,55.8850192 33.992,55.8850192 Z M48.579,63.5820192 C49.512,63.5820192 50.269,62.3300192 50.269,60.7860192 C50.269,59.2410192 49.512,57.9900192 48.579,57.9900192 C47.646,57.9900192 46.889,59.2410192 46.889,60.7860192 C46.889,62.3300192 47.646,63.5820192 48.579,63.5820192 Z M38.855,63.5820192 C39.788,63.5820192 40.544,62.3300192 40.544,60.7860192 C40.544,59.2410192 39.788,57.9900192 38.855,57.9900192 C37.921,57.9900192 37.165,59.2410192 37.165,60.7860192 C37.165,62.3300192 37.921,63.5820192 38.855,63.5820192 Z M43.717,71.2790192 C44.65,71.2790192 45.406,70.0270192 45.406,68.4830192 C45.406,66.9380192 44.65,65.6860192 43.717,65.6860192 C42.784,65.6860192 42.027,66.9380192 42.027,68.4830192 C42.027,70.0270192 42.784,71.2790192 43.717,71.2790192 Z" id="path-1"></path>
    </defs>
    <g id="icons-/-Morangos" stroke="none" stroke-width="1" fill="none" fill-rule="evenodd">
        <mask id="mask-2" fill="white">
            <use xlink:href="#path-1"></use>
        </mask>
        <use id="Fill-80" fill="#FFFFFF" xlink:href="#path-1"></use>
        <rect id="Colors" fill="#363D46" fill-rule="nonzero" mask="url(#mask-2)" x="0" y="0" width="88" height="88"></rect>
    </g>
</svg>