<?xml version="1.0" encoding="UTF-8"?>
<svg width="88px" height="88px" viewBox="0 0 88 88" version="1.1" xmlns="http://www.w3.org/2000/svg" xmlns:xlink="http://www.w3.org/1999/xlink">
    <!-- Generator: Sketch 52.6 (67491) - http://www.bohemiancoding.com/sketch -->
    <title>icons / Pessego</title>
    <desc>Created with Sketch.</desc>
    <defs>
        <path d="M51.449,10.46 C55.399,7.723 60.253,6.796 64.914,7.851 C64.267,12.587 61.691,16.805 57.741,19.542 C54.119,22.052 49.738,23.02 45.438,22.352 L61.324,11.345 C61.7,11.085 61.794,10.569 61.533,10.194 C61.273,9.818 60.757,9.723 60.382,9.985 L44.496,20.992 C45.379,16.733 47.826,12.97 51.449,10.46 Z M43.682,83.997 C26.865,83.997 13.184,70.799 13.184,54.576 C13.184,39.627 24.869,27.706 40.343,26.195 C40.64,27.022 40.831,27.848 40.943,28.634 C26.566,29.876 15.666,40.822 15.666,54.576 C15.666,69.43 28.234,81.514 43.682,81.514 C59.129,81.514 71.697,69.43 71.697,54.576 C71.697,40.308 59.967,29.065 44.794,28.538 C45.116,31.154 44.799,33.319 44.68,33.98 C46.584,33.785 47.719,33.069 47.719,32.65 C47.719,32.193 48.09,31.823 48.547,31.823 C49.004,31.823 49.375,32.193 49.375,32.65 C49.375,34.645 46.511,35.689 43.682,35.689 C40.853,35.689 37.989,34.645 37.989,32.65 C37.989,32.193 38.359,31.823 38.816,31.823 C39.273,31.823 39.644,32.193 39.644,32.65 C39.644,32.905 40.071,33.269 40.828,33.561 C41.202,33.705 41.659,33.827 42.188,33.913 C42.188,33.826 42.197,33.738 42.216,33.65 C42.261,33.448 42.724,31.227 42.337,28.544 C42.224,27.753 42.034,26.922 41.739,26.091 C40.776,23.367 38.675,20.639 34.287,19.303 C33.63,19.103 33.261,18.41 33.46,17.754 C33.659,17.098 34.352,16.726 35.009,16.928 C35.666,17.127 36.271,17.359 36.846,17.608 C39.072,18.573 40.706,19.88 41.893,21.344 C42.738,16.111 45.64,11.464 50.035,8.419 C54.886,5.059 60.926,4.076 66.607,5.726 C67.172,5.889 67.544,6.426 67.499,7.012 C67.048,12.911 64.007,18.222 59.156,21.583 C55.848,23.874 51.988,25.06 48.066,25.06 C46.64,25.06 45.209,24.898 43.791,24.582 C43.988,25.069 44.155,25.558 44.293,26.044 C61.1,26.34 74.18,38.761 74.18,54.576 C74.18,70.799 60.499,83.997 43.682,83.997 Z M62.553,64.247 C62.702,63.953 62.843,63.638 62.979,63.311 C64.006,60.843 64.648,57.54 64.648,54.576 C64.648,48.979 62.23,44.166 57.465,40.254 C57.2,40.037 56.932,39.82 56.653,39.608 C56.289,39.332 56.218,38.813 56.494,38.449 C56.771,38.084 57.289,38.014 57.654,38.289 C63.393,42.642 66.303,48.122 66.303,54.576 C66.303,58.171 65.411,62.26 64.031,64.993 C63.885,65.282 63.594,65.448 63.291,65.448 C63.166,65.448 63.039,65.42 62.919,65.359 C62.511,65.153 62.347,64.655 62.553,64.247 Z" id="path-1"></path>
    </defs>
    <g id="icons-/-Pessego" stroke="none" stroke-width="1" fill="none" fill-rule="evenodd">
        <mask id="mask-2" fill="white">
            <use xlink:href="#path-1"></use>
        </mask>
        <use id="Fill-8" fill="#FFFFFF" xlink:href="#path-1"></use>
        <rect id="Colors" fill="#363D46" fill-rule="nonzero" mask="url(#mask-2)" x="0" y="0" width="88" height="88"></rect>
    </g>
</svg>