<?xml version="1.0" encoding="UTF-8"?>
<svg width="88px" height="88px" viewBox="0 0 88 88" version="1.1" xmlns="http://www.w3.org/2000/svg" xmlns:xlink="http://www.w3.org/1999/xlink">
    <!-- Generator: Sketch 52.6 (67491) - http://www.bohemiancoding.com/sketch -->
    <title>icons / Pera</title>
    <desc>Created with Sketch.</desc>
    <defs>
        <path d="M26.703,50.828 C29.094,47.184 31.805,43.053 32.504,35.979 C32.974,31.223 34.515,27.801 37.084,25.809 C39.249,24.13 41.682,23.868 42.989,23.868 C43.572,23.868 43.932,23.92 43.942,23.922 C44.019,23.931 44.081,23.938 44.143,23.938 C44.174,23.938 44.202,23.925 44.232,23.922 C44.267,23.92 44.302,23.928 44.335,23.923 C44.373,23.918 48.065,23.38 51.198,25.809 C53.767,27.801 55.308,31.223 55.778,35.979 C56.477,43.053 59.187,47.184 61.579,50.828 C64.135,54.723 66.343,58.087 66.163,64.44 C65.857,75.195 57.007,82.421 44.141,82.421 C31.275,82.421 22.425,75.195 22.119,64.44 C21.939,58.087 24.146,54.723 26.703,50.828 Z M62.684,17.469 L46.336,12.869 C49.572,11.652 53.309,11.513 56.93,12.532 C61.017,13.682 64.466,16.162 66.568,19.422 C63.074,21.108 58.839,21.424 54.751,20.274 C51.129,19.255 48.013,17.188 45.887,14.462 L62.235,19.062 C62.31,19.083 62.386,19.093 62.46,19.093 C62.821,19.093 63.154,18.855 63.256,18.49 C63.38,18.05 63.124,17.593 62.684,17.469 Z M44.141,84.904 C30.055,84.904 19.979,76.518 19.637,64.51 C19.434,57.377 22.074,53.355 24.627,49.466 C26.971,45.894 29.394,42.201 30.033,35.735 C30.575,30.251 32.447,26.242 35.599,23.818 C38.359,21.697 41.373,21.372 43.045,21.384 C43.141,20.219 43.201,18.257 42.822,16.116 C42.049,11.754 39.89,8.723 36.403,7.107 C35.781,6.819 35.51,6.081 35.799,5.459 C36.087,4.837 36.826,4.567 37.447,4.855 C40.68,6.353 42.655,8.717 43.85,11.246 C47.923,9.219 52.862,8.808 57.603,10.142 C62.775,11.597 67.07,14.945 69.386,19.326 C69.695,19.911 69.491,20.636 68.922,20.974 C66.179,22.602 62.958,23.438 59.632,23.438 C57.793,23.438 55.921,23.183 54.079,22.664 C50.757,21.729 47.806,20.007 45.5,17.739 C45.62,19.193 45.589,20.464 45.526,21.385 C47.241,21.414 50.076,21.814 52.683,23.818 C55.835,26.242 57.707,30.251 58.249,35.735 C58.887,42.202 61.311,45.895 63.655,49.466 C66.207,53.355 68.847,57.378 68.645,64.51 C68.303,76.518 58.227,84.904 44.141,84.904 Z M44.599,77.369 C52.639,77.368 60.868,72.868 61.127,62.815 C61.139,62.358 60.779,61.978 60.322,61.966 C59.863,61.934 59.484,62.315 59.473,62.772 C59.242,71.712 51.836,75.713 44.599,75.714 C44.142,75.714 43.772,76.084 43.772,76.541 C43.772,76.998 44.142,77.369 44.599,77.369 Z M44.872,30.21 L45.208,30.128 C45.271,30.123 45.388,30.115 45.54,30.115 C48.35,30.115 50.153,32.141 50.9,36.138 C50.975,36.536 51.322,36.814 51.713,36.814 C51.763,36.814 51.814,36.81 51.866,36.8 C52.315,36.716 52.611,36.284 52.527,35.834 C51.388,29.739 48.099,28.459 45.54,28.459 C45.239,28.459 45.033,28.482 44.995,28.486 C44.953,28.489 44.912,28.496 44.87,28.506 L44.477,28.603 C44.034,28.712 43.762,29.16 43.871,29.604 C43.98,30.048 44.425,30.317 44.872,30.21 Z" id="path-1"></path>
    </defs>
    <g id="icons-/-Pera" stroke="none" stroke-width="1" fill="none" fill-rule="evenodd">
        <mask id="mask-2" fill="white">
            <use xlink:href="#path-1"></use>
        </mask>
        <use id="Fill-5" fill="#FFFFFF" xlink:href="#path-1"></use>
        <rect id="Colors" fill="#363D46" fill-rule="nonzero" mask="url(#mask-2)" x="0" y="0" width="88" height="88"></rect>
    </g>
</svg>