<?xml version="1.0" encoding="UTF-8"?>
<svg width="88px" height="88px" viewBox="0 0 88 88" version="1.1" xmlns="http://www.w3.org/2000/svg" xmlns:xlink="http://www.w3.org/1999/xlink">
    <!-- Generator: Sketch 52.6 (67491) - http://www.bohemiancoding.com/sketch -->
    <title>icons / Surpresa</title>
    <desc>Created with Sketch.</desc>
    <defs>
        <path d="M55.5745871,38.2638578 L56.1511668,38.1519557 C60.6578311,37.2805782 65.0221625,40.2457583 65.8913094,44.7665534 C66.3193038,46.9931339 65.4317256,49.6008292 64.127649,52.0331951 C68.492789,52.1759704 72,55.839604 72,60.3224866 C72,64.8955661 68.3502368,68.6153471 63.8631447,68.6153471 L24.1367632,68.6153471 C19.6497632,68.6153471 16,64.8955661 16,60.3224866 C16,57.2877057 17.6073182,54.628378 19.9999913,53.1826743 C19.9904138,47.5231291 23.6133011,44.4669275 27.0303447,43.8037012 L28.8305402,43.4543207 C27.9688769,42.644745 27.3442025,41.5592379 27.1052474,40.3000962 C26.8164293,38.7801569 27.1264359,37.2356054 27.9791587,35.9517021 C28.8319724,34.6686316 30.1248337,33.8001742 31.6202132,33.5064013 L41.1577589,31.6313437 C41.1676711,31.6293081 41.1774924,31.6278277 41.1874956,31.6263472 C45.9260771,30.798324 48.0959415,27.6984879 48.1574154,26.3001289 C48.2253459,24.7627945 46.6556703,23.1275666 46.0449327,22.6271812 C45.5178578,22.1951731 45.3528968,21.4470006 45.6514453,20.8278106 C45.9494481,20.2091757 46.6274796,19.878022 47.2870507,20.041517 C47.5290359,20.0998089 53.2555646,21.5247232 56.1628428,25.4288956 C57.6553123,27.4333983 58.692093,31.2822397 57.4423362,34.9933085 C57.0997288,36.010752 56.5276776,37.1680111 55.5745863,38.2638586 Z M23.1901395,52.0846538 C23.5007375,52.0478152 23.8166193,52.0288751 24.1367632,52.0288751 L60.796605,52.0288751 C61.9278441,50.1490761 63.3187742,46.7036198 63.0518179,45.3167676 C62.7772215,43.8887981 61.9653162,42.6536177 60.7653292,41.8390017 C59.5651607,41.0242035 58.1213299,40.7271844 56.6997245,41.0037949 L27.5788117,46.6554492 C25.5191965,47.0548486 23.5821161,49.0823665 23.1901395,52.0846538 Z M24.1367632,55.2431541 C21.3893553,55.2431541 19.1537763,57.5216209 19.1537763,60.3224866 C19.1537763,63.1232584 21.3893553,65.4010681 24.1367632,65.4010681 L63.8631447,65.4010681 C66.6112895,65.4010681 68.8462237,63.1232584 68.8462237,60.3224866 C68.8462237,57.5216209 66.6112895,55.2431541 63.8631447,55.2431541 L24.1367632,55.2431541 Z M41.6934729,34.5303039 L32.1693859,36.4024932 C31.4348822,36.546465 30.8000461,36.9734767 30.3803686,37.6042325 C29.9614186,38.2343407 29.8092799,38.9932463 29.9514155,39.7407711 C30.0930964,40.4888511 30.512683,41.1346888 31.1319687,41.5609603 C31.7526185,41.9879719 32.4963979,42.1406413 33.2330842,41.9979648 L48.9733084,38.9033102 C51.9279652,38.092497 53.8882182,36.4478314 54.700019,34.0378758 C55.5570159,31.493201 54.9024463,28.620796 53.8521159,27.210316 C53.0849655,26.1799365 51.9789812,25.333778 50.8431694,24.6698975 C50.9980363,25.223671 51.0808805,25.8148253 51.0533264,26.4319797 C50.9161014,29.5612394 47.298327,33.5446149 41.6934729,34.5303039 Z" id="path-1"></path>
    </defs>
    <g id="icons-/-Surpresa" stroke="none" stroke-width="1" fill="none" fill-rule="evenodd">
        <mask id="mask-2" fill="white">
            <use xlink:href="#path-1"></use>
        </mask>
        <use id="Combined-Shape" fill="#231F20" xlink:href="#path-1"></use>
        <rect id="Colors" fill="#363D46" fill-rule="nonzero" mask="url(#mask-2)" x="0" y="0" width="88" height="88"></rect>
        <g id="Group-8" mask="url(#mask-2)">
            <g transform="translate(13.000000, 19.000000)" id="Group-7">
                <g></g>
            </g>
        </g>
    </g>
</svg>