<?xml version="1.0" encoding="UTF-8"?>
<svg width="88px" height="88px" viewBox="0 0 88 88" version="1.1" xmlns="http://www.w3.org/2000/svg" xmlns:xlink="http://www.w3.org/1999/xlink">
    <!-- Generator: Sketch 52.6 (67491) - http://www.bohemiancoding.com/sketch -->
    <title>icons / Uvas</title>
    <desc>Created with Sketch.</desc>
    <defs>
        <path d="M26.3252931,16.3990107 C26.4082931,16.3990107 26.4912931,16.4000107 26.5752931,16.4020107 C26.9512931,16.4150107 27.2582931,16.1830107 27.3752931,15.8420107 C27.4912931,15.5020107 27.3742931,15.1250107 27.0852931,14.9100107 C24.2182931,12.7800107 23.7292931,8.90101075 23.6462931,7.48401075 C24.9502931,7.02901075 28.6912931,6.07001075 32.7722931,8.23001075 C32.9832931,8.34101075 33.2302931,8.35701075 33.4532931,8.27201075 C33.6762931,8.18701075 33.8512931,8.01101075 33.9342931,7.78801075 C34.2132931,7.04401075 35.2282931,5.22901075 35.8972931,4.52801075 C39.1332931,5.08601075 42.8292931,8.51001075 43.6482931,11.7900107 C44.1472931,13.7850107 43.5302931,15.3900107 41.8142931,16.5580107 C39.9032931,17.8590107 39.6362931,19.3190107 39.6552931,20.1120107 C39.6612931,20.3380107 39.6882931,20.5130107 39.7092931,20.6110107 C39.7722931,20.8220107 40.0342931,21.5240107 40.8142931,22.1400107 C41.3812931,22.5860107 42.2192931,22.9870107 43.4622931,23.1190107 C45.5272931,23.3370107 46.8292931,24.4590107 47.3322931,26.4540107 C47.3782931,26.6330107 47.4122931,26.8180107 47.4432931,27.0050107 C47.1492931,26.8990107 46.8512931,26.8020107 46.5432931,26.7240107 C45.7722931,26.5290107 44.9612931,26.4230107 44.1202931,26.4230107 C43.1292931,26.4230107 42.1792931,26.5670107 41.2882931,26.8340107 L39.3512931,20.9500107 L39.2642931,20.6860107 L38.0852931,13.9840107 L41.4942931,10.8850107 C41.7482931,10.6540107 41.7662931,10.2620107 41.5362931,10.0080107 C41.3062931,9.75401075 40.9132931,9.73701075 40.6592931,9.96601075 L37.8302931,12.5370107 L36.8312931,6.85601075 C36.7712931,6.51801075 36.4462931,6.29201075 36.1112931,6.35201075 C35.7742931,6.41101075 35.5482931,6.73301075 35.6082931,7.07101075 L36.5212931,12.2620107 L33.9152931,10.1850107 C33.6472931,9.97101075 33.2562931,10.0160107 33.0432931,10.2840107 C32.8292931,10.5520107 32.8732931,10.9430107 33.1412931,11.1560107 L36.8462931,14.1070107 L37.7402931,19.1900107 L32.6762931,14.6900107 L31.5562931,9.24001075 C31.4862931,8.90401075 31.1562931,8.68901075 30.8222931,8.75701075 C30.4872931,8.82601075 30.2702931,9.15401075 30.3392931,9.49001075 L31.1252931,13.3120107 L26.0762931,8.82701075 C25.8202931,8.59901075 25.4282931,8.62201075 25.2002931,8.87801075 C24.9722931,9.13401075 24.9962931,9.52701075 25.2522931,9.75401075 L30.8082931,14.6900107 L28.2312931,15.3370107 C27.8922931,15.4390107 27.6992931,15.7650107 27.7802931,16.0900107 C27.8162931,16.2310107 27.8962931,16.3470107 28.0022931,16.4300107 C28.1092931,16.5120107 28.2432931,16.5600107 28.3822931,16.5600107 C28.4322931,16.5600107 28.4832931,16.5540107 28.5342931,16.5410107 L31.9312931,15.6880107 L37.3702931,20.5210107 L30.7882931,22.1750107 L24.6762931,17.8160107 C24.3972931,17.6190107 24.0102931,17.6820107 23.8102931,17.9610107 C23.6112931,18.2400107 23.6762931,18.6280107 23.9552931,18.8270107 L29.2072931,22.5720107 L23.1952931,24.0820107 L19.1472931,21.1950107 C18.8672931,20.9970107 18.4802931,21.0610107 18.2812931,21.3400107 C18.0822931,21.6190107 18.1472931,22.0070107 18.4262931,22.2060107 L21.6142931,24.4790107 L15.9072931,25.9130107 C15.5742931,25.9970107 15.3732931,26.3340107 15.4562931,26.6660107 C15.5272931,26.9480107 15.7802931,27.1360107 16.0582931,27.1360107 C16.1082931,27.1360107 16.1592931,27.1300107 16.2092931,27.1170107 L21.9162931,25.6840107 L20.1812931,29.1940107 C20.0292931,29.5010107 20.1552931,29.8730107 20.4622931,30.0250107 C20.5512931,30.0690107 20.6452931,30.0900107 20.7372931,30.0900107 C20.9662931,30.0900107 21.1862931,29.9630107 21.2942931,29.7440107 L23.4982931,25.2860107 L29.5102931,23.7760107 L26.6512931,29.5590107 C26.4992931,29.8660107 26.6252931,30.2380107 26.9322931,30.3900107 C27.0212931,30.4340107 27.1152931,30.4550107 27.2072931,30.4550107 C27.4362931,30.4550107 27.6562931,30.3280107 27.7642931,30.1090107 L31.0912931,23.3790107 L37.6732931,21.7260107 L35.1632931,28.5560107 L31.7662931,29.4090107 C31.5752931,29.4580107 31.4352931,29.5940107 31.3602931,29.7610107 C31.3052931,29.8840107 31.2802931,30.0220107 31.3152931,30.1630107 C31.3862931,30.4440107 31.6392931,30.6320107 31.9172931,30.6320107 C31.9602931,30.6320107 32.0042931,30.6260107 32.0472931,30.6160107 C32.0682931,30.6140107 34.6442931,29.9660107 34.6442931,29.9660107 L32.0812931,36.9410107 C31.9632931,37.2630107 32.1282931,37.6200107 32.4502931,37.7380107 C32.5212931,37.7640107 32.5932931,37.7760107 32.6642931,37.7760107 C32.9172931,37.7760107 33.1542931,37.6210107 33.2472931,37.3700107 L35.5762931,31.0310107 L35.7062931,31.4680107 C35.0472931,32.7520107 34.6712931,34.2120107 34.6712931,35.7770107 C34.6712931,36.4570107 34.7502931,37.1250107 34.8872931,37.7750107 C34.9452931,38.0540107 35.0212931,38.3270107 35.1032931,38.5980107 C33.6842931,39.3250107 32.4192931,39.6020107 31.7392931,39.7040107 C31.1412931,38.4230107 29.7332931,34.7800107 31.2612931,31.5320107 C31.4142931,31.2060107 31.3392931,30.8180107 31.0752931,30.5730107 C30.9182931,30.4270107 30.7162931,30.3510107 30.5112931,30.3510107 C30.3732931,30.3510107 30.2332931,30.3860107 30.1062931,30.4580107 C26.5762931,32.4430107 22.6922931,32.4490107 18.5572931,30.4770107 C16.1462931,29.3270107 14.3382931,27.8020107 13.6052931,27.1320107 C14.3532931,25.0110107 17.9132931,16.3990107 26.3252931,16.3990107 Z M51.3672931,17.3640107 C50.8072931,21.2930107 50.6912931,25.1780107 50.6882931,29.0130107 C50.4782931,28.8130107 50.2582931,28.6270107 50.0302931,28.4480107 C50.0392931,27.5470107 49.9472931,26.6680107 49.7402931,25.8460107 C49.0852931,23.2530107 47.3362931,21.4830107 44.8662931,20.8550107 C46.9212931,20.0690107 49.3982931,18.9120107 51.3672931,17.3640107 Z M54.4052931,42.8970107 C57.0572931,43.8600107 58.9042931,46.3410107 58.9042931,49.3320107 C58.9042931,52.0080107 57.4502931,54.3410107 55.3092931,55.5570107 C55.2862931,55.5700107 55.2652931,55.5840107 55.2422931,55.5970107 C54.2592931,56.1410107 53.1332931,56.4500107 51.9382931,56.4500107 C50.7432931,56.4500107 49.6182931,56.1410107 48.6342931,55.5970107 C48.6122931,55.5830107 48.5902931,55.5700107 48.5682931,55.5570107 C46.4262931,54.3420107 44.9722931,52.0080107 44.9722931,49.3320107 C44.9722931,46.3410107 46.8192931,43.8610107 49.4712931,42.8970107 C50.2362931,42.6190107 51.0642931,42.4610107 51.9382931,42.4610107 C52.8122931,42.4610107 53.6402931,42.6190107 54.4052931,42.8970107 Z M53.1932931,33.4550107 C54.1392931,30.7800107 56.6822931,28.9060107 59.7572931,28.9060107 C63.6632931,28.9060107 66.7232931,31.9240107 66.7232931,35.7770107 C66.7232931,37.9910107 65.7292931,39.9710107 64.1732931,41.2770107 C63.8492931,41.5500107 63.4992931,41.7910107 63.1302931,42.0010107 C63.1062931,42.0140107 63.0842931,42.0290107 63.0602931,42.0420107 C62.0772931,42.5860107 60.9522931,42.8950107 59.7572931,42.8950107 C58.5622931,42.8950107 57.4372931,42.5860107 56.4532931,42.0420107 C56.4302931,42.0290107 56.4092931,42.0150107 56.3862931,42.0020107 C56.0162931,41.7920107 55.6662931,41.5500107 55.3412931,41.2770107 C53.9932931,40.1450107 53.0712931,38.5050107 52.8492931,36.6460107 C52.8142931,36.3610107 52.7912931,36.0720107 52.7912931,35.7770107 C52.7912931,34.9570107 52.9372931,34.1790107 53.1932931,33.4550107 Z M74.5422931,49.3320107 C74.5422931,53.2570107 71.4162931,56.4500107 67.5752931,56.4500107 C66.8402931,56.4500107 66.1322931,56.3310107 65.4662931,56.1150107 C65.0502931,55.9790107 64.6512931,55.8060107 64.2732931,55.5970107 C64.2482931,55.5830107 64.2242931,55.5670107 64.1992931,55.5530107 C62.0612931,54.3360107 60.6102931,52.0050107 60.6102931,49.3320107 C60.6102931,46.3410107 62.4572931,43.8600107 65.1092931,42.8970107 C65.8732931,42.6190107 66.7012931,42.4610107 67.5752931,42.4610107 C71.4822931,42.4610107 74.5422931,45.4790107 74.5422931,49.3320107 Z M59.7572931,70.0060107 C59.0212931,70.0060107 58.3132931,69.8870107 57.6472931,69.6700107 C57.2322931,69.5350107 56.8342931,69.3620107 56.4572931,69.1540107 C56.4282931,69.1380107 56.4002931,69.1190107 56.3712931,69.1030107 C54.2382931,67.8850107 52.7912931,65.5570107 52.7912931,62.8870107 C52.7912931,59.0340107 55.8512931,56.0150107 59.7572931,56.0150107 C61.6022931,56.0150107 63.2522931,56.6940107 64.4862931,57.8110107 C65.8652931,59.0580107 66.7232931,60.8530107 66.7232931,62.8870107 C66.7232931,66.8120107 63.5982931,70.0060107 59.7572931,70.0060107 Z M51.9382931,83.5610107 C48.0972931,83.5610107 44.9722931,80.3670107 44.9722931,76.4420107 C44.9722931,74.4080107 45.8312931,72.6120107 47.2112931,71.3640107 C48.4452931,70.2490107 50.0942931,69.5700107 51.9382931,69.5700107 C53.7802931,69.5700107 55.4272931,70.2470107 56.6602931,71.3590107 C58.0442931,72.6070107 58.9042931,74.4050107 58.9042931,76.4420107 C58.9042931,80.3670107 55.7802931,83.5610107 51.9382931,83.5610107 Z M37.1542931,62.8870107 C37.1542931,60.8530107 38.0122931,59.0580107 39.3912931,57.8100107 C40.6252931,56.6940107 42.2752931,56.0150107 44.1202931,56.0150107 C48.0262931,56.0150107 51.0862931,59.0340107 51.0862931,62.8870107 C51.0862931,65.5570107 49.6382931,67.8850107 47.5052931,69.1030107 C47.4762931,69.1200107 47.4482931,69.1370107 47.4202931,69.1540107 C47.0432931,69.3620107 46.6452931,69.5340107 46.2312931,69.6690107 C45.5642931,69.8860107 44.8552931,70.0060107 44.1202931,70.0060107 C40.2782931,70.0060107 37.1542931,66.8120107 37.1542931,62.8870107 Z M40.6642931,29.7880107 C40.7452931,29.7430107 40.8272931,29.7000107 40.9112931,29.6590107 C41.2782931,29.4740107 41.6632931,29.3180107 42.0672931,29.1990107 C42.5022931,29.0720107 42.9562931,28.9830107 43.4252931,28.9390107 C43.6532931,28.9180107 43.8852931,28.9060107 44.1202931,28.9060107 C44.8582931,28.9060107 45.5652931,29.0140107 46.2282931,29.2150107 C46.3732931,29.2590107 46.5132931,29.3130107 46.6532931,29.3660107 C46.9262931,29.4680107 47.1922931,29.5800107 47.4462931,29.7140107 C47.7132931,29.8540107 47.9662931,30.0160107 48.2102931,30.1880107 C48.4642931,30.3680107 48.7042931,30.5620107 48.9302931,30.7730107 C49.1792931,31.0060107 49.4102931,31.2560107 49.6212931,31.5240107 C50.0902931,32.1180107 50.4602931,32.7930107 50.7102931,33.5270107 C50.9502931,34.2300107 51.0862931,34.9840107 51.0862931,35.7770107 C51.0862931,36.0540107 51.0662931,36.3260107 51.0362931,36.5950107 C50.8242931,38.4750107 49.8972931,40.1340107 48.5352931,41.2770107 C48.2102931,41.5500107 47.8602931,41.7920107 47.4902931,42.0020107 C47.4672931,42.0150107 47.4462931,42.0290107 47.4242931,42.0420107 C46.4402931,42.5860107 45.3152931,42.8950107 44.1202931,42.8950107 C42.9252931,42.8950107 41.7992931,42.5860107 40.8162931,42.0420107 C40.7932931,42.0280107 40.7712931,42.0150107 40.7492931,42.0020107 C40.3792931,41.7920107 40.0282931,41.5500107 39.7042931,41.2770107 C39.1252931,40.7910107 38.6302931,40.2090107 38.2292931,39.5590107 C38.0822931,39.3210107 37.9492931,39.0730107 37.8302931,38.8170107 C37.7092931,38.5560107 37.6002931,38.2880107 37.5102931,38.0110107 C37.4182931,37.7280107 37.3422931,37.4380107 37.2852931,37.1400107 C37.2222931,36.8100107 37.1882931,36.4710107 37.1712931,36.1270107 C37.1662931,36.0100107 37.1542931,35.8950107 37.1542931,35.7770107 C37.1542931,35.5810107 37.1672931,35.3890107 37.1832931,35.1970107 C37.2342931,34.5670107 37.3702931,33.9650107 37.5762931,33.3980107 C37.8022931,32.7770107 38.1132931,32.2020107 38.4992931,31.6830107 C39.0742931,30.9080107 39.8082931,30.2610107 40.6642931,29.7880107 Z M36.5882931,30.0800107 L36.2912931,29.0840107 L38.6282931,22.7250107 L40.1272931,27.2790107 C38.7192931,27.9140107 37.5092931,28.8780107 36.5882931,30.0800107 Z M29.3352931,49.3320107 C29.3352931,45.4790107 32.3952931,42.4610107 36.3012931,42.4610107 C37.1752931,42.4610107 38.0032931,42.6190107 38.7682931,42.8970107 C41.4202931,43.8600107 43.2672931,46.3410107 43.2672931,49.3320107 C43.2672931,52.0080107 41.8132931,54.3410107 39.6722931,55.5570107 C39.6492931,55.5700107 39.6272931,55.5830107 39.6052931,55.5970107 C39.2262931,55.8060107 38.8272931,55.9790107 38.4112931,56.1150107 C37.7452931,56.3310107 37.0362931,56.4500107 36.3012931,56.4500107 C32.4602931,56.4500107 29.3352931,53.2570107 29.3352931,49.3320107 Z M61.2082931,19.3580107 C60.4032931,18.2300107 60.2672931,16.7280107 60.8902931,15.8650107 C61.2592931,15.3540107 61.9112931,15.0520107 62.6422931,15.0520107 C62.6612931,15.0520107 62.6792931,15.0530107 62.6982931,15.0530107 C63.6502931,15.0730107 64.5312931,15.5910107 65.1142931,16.4730107 C66.2892931,18.2520107 66.2612931,20.1040107 65.0822931,21.5790107 C63.5212931,21.3800107 62.0812931,20.5830107 61.2082931,19.3580107 Z M28.1202931,33.9390107 C21.0832931,35.8330107 14.3542931,31.4870107 11.4692931,28.5240107 C11.0552931,28.0990107 10.9002931,27.4840107 11.0642931,26.9130107 C12.2062931,22.9390107 16.0862931,15.9260107 23.1802931,14.2730107 C21.0762931,10.9620107 21.1432931,7.09501075 21.1482931,6.88601075 C21.1642931,6.26301075 21.5292931,5.70201075 22.0922931,5.43401075 C22.3032931,5.33401075 26.9042931,3.20601075 32.3792931,5.32501075 C32.9812931,4.22501075 33.8402931,2.90401075 34.6772931,2.30801075 C35.0072931,2.07301075 35.4122931,1.96501075 35.8152931,2.01001075 C40.1682931,2.48201075 44.9542931,6.77001075 46.0572931,11.1880107 C46.8022931,14.1670107 45.7642931,16.8720107 43.2112931,18.6100107 C43.0192931,18.7410107 42.8672931,18.8670107 42.7362931,18.9880107 C46.1652931,17.8160107 51.0362931,15.5770107 52.1242931,12.6250107 C52.1842931,12.4610107 52.2762931,12.3180107 52.3892931,12.1990107 C53.0982931,9.44101075 54.0882931,6.66401075 55.4962931,3.87001075 C55.8052931,3.25701075 56.5532931,3.01301075 57.1642931,3.31901075 C57.7762931,3.62801075 58.0222931,4.37401075 57.7142931,4.98701075 C55.7032931,8.97801075 54.5752931,12.9730107 53.9442931,16.9460107 C53.9802931,18.7600107 54.4742931,20.7540107 56.1022931,22.1970107 C58.5172931,24.3380107 61.8592931,24.0910107 63.9642931,22.6190107 C62.4452931,22.2120107 61.0862931,21.3250107 60.1972931,20.0790107 C59.2392931,18.7350107 58.8232931,16.6060107 59.8842931,15.1380107 C60.5022931,14.2830107 61.5632931,13.7710107 62.7242931,13.8120107 C64.0902931,13.8410107 65.3392931,14.5610107 66.1502931,15.7890107 C67.6102931,18.0000107 67.4322931,20.0370107 66.5622931,21.5860107 C66.6682931,21.5730107 66.7742931,21.5570107 66.8802931,21.5390107 C68.8132931,21.2010107 70.2112931,19.9750107 70.7142931,18.1770107 C71.4092931,15.6910107 70.0822931,13.6830107 70.0682931,13.6630107 C69.8762931,13.3790107 69.9522931,12.9930107 70.2362931,12.8010107 C70.5192931,12.6090107 70.9062931,12.6840107 71.0972931,12.9680107 C71.1662931,13.0690107 72.7582931,15.4790107 71.9092931,18.5120107 C71.2822931,20.7550107 69.4822931,22.3440107 67.0942931,22.7620107 C66.5962931,22.8490107 66.0922931,22.8830107 65.5952931,22.8640107 C65.4792931,22.9800107 65.3602931,23.0920107 65.2382931,23.1980107 C63.9542931,24.3120107 62.1362931,25.0290107 60.2312931,25.0290107 C58.5462931,25.0290107 56.7932931,24.4680107 55.2792931,23.1260107 C54.4612931,22.4010107 53.8842931,21.5740107 53.4832931,20.7050107 C53.2342931,23.4990107 53.1742931,26.2770107 53.1712931,29.0300107 C54.8622931,27.4140107 57.1672931,26.4230107 59.7572931,26.4230107 C65.0552931,26.4230107 69.2062931,30.5320107 69.2062931,35.7770107 C69.2062931,37.2670107 68.8662931,38.7070107 68.2422931,39.9990107 C73.2182931,40.3280107 77.0242931,44.3090107 77.0242931,49.3320107 C77.0242931,54.3680107 73.1902931,58.5100107 68.3312931,58.9030107 C68.9012931,60.1220107 69.2062931,61.4750107 69.2062931,62.8870107 C69.2062931,67.9230107 65.3712931,72.0650107 60.5132931,72.4580107 C61.0822931,73.6770107 61.3872931,75.0300107 61.3872931,76.4420107 C61.3872931,81.7360107 57.1482931,86.0430107 51.9382931,86.0430107 C46.7282931,86.0430107 42.4892931,81.7360107 42.4892931,76.4420107 C42.4892931,75.0300107 42.7952931,73.6770107 43.3632931,72.4580107 C38.5062931,72.0650107 34.6712931,67.9230107 34.6712931,62.8870107 C34.6712931,61.4750107 34.9762931,60.1220107 35.5452931,58.9030107 C30.6872931,58.5100107 26.8522931,54.3680107 26.8522931,49.3320107 C26.8522931,46.3220107 28.2252931,43.6930107 30.3922931,41.9930107 C30.1602931,41.8500107 29.9602931,41.6540107 29.8212931,41.4090107 C29.7182931,41.2280107 27.8302931,37.8500107 28.1202931,33.9390107 Z M46.1842931,32.0160107 C46.3772931,32.1710107 46.5502931,32.3320107 46.7132931,32.4960107 C46.8262931,32.6090107 46.9352931,32.7240107 47.0342931,32.8420107 C47.1342931,32.9620107 47.2252931,33.0840107 47.3112931,33.2090107 C47.5102931,33.4980107 47.6692931,33.8020107 47.7912931,34.1190107 C47.9442931,34.5150107 48.0352931,34.9350107 48.0702931,35.3790107 C48.0802931,35.5100107 48.0912931,35.6410107 48.0912931,35.7770107 C48.0912931,36.1670107 48.0452931,36.5850107 47.9702931,36.9860107 C47.8822931,37.4620107 47.7532931,37.9120107 47.5902931,38.2530107 C47.3942931,38.6650107 47.5682931,39.1600107 47.9812931,39.3560107 C48.0962931,39.4110107 48.2172931,39.4370107 48.3372931,39.4370107 C48.6462931,39.4370107 48.9422931,39.2630107 49.0842931,38.9660107 C49.4932931,38.1090107 49.7472931,36.8880107 49.7472931,35.7770107 C49.7472931,34.8070107 49.5432931,33.9100107 49.1482931,33.0880107 C48.9902931,32.7600107 48.7962931,32.4460107 48.5762931,32.1430107 C48.3872931,31.8830107 48.1782931,31.6330107 47.9442931,31.3920107 C47.7312931,31.1720107 47.5042931,30.9580107 47.2522931,30.7540107 C47.2412931,30.7440107 47.2312931,30.7340107 47.2202931,30.7250107 C46.9902931,30.5410107 46.6952931,30.5130107 46.4352931,30.6030107 C46.2932931,30.6520107 46.1582931,30.7260107 46.0562931,30.8530107 C45.8122931,31.1570107 45.8322931,31.5740107 46.0612931,31.8690107 C46.1002931,31.9200107 46.1322931,31.9740107 46.1842931,32.0160107 Z M62.6712931,32.8420107 C63.3802931,33.6890107 63.7292931,34.6580107 63.7292931,35.7770107 C63.7292931,36.1670107 63.6822931,36.5850107 63.6082931,36.9860107 C63.5192931,37.4610107 63.3902931,37.9120107 63.2282931,38.2530107 C63.0312931,38.6650107 63.2052931,39.1600107 63.6182931,39.3560107 C63.7332931,39.4110107 63.8542931,39.4370107 63.9742931,39.4370107 C64.2832931,39.4370107 64.5792931,39.2630107 64.7212931,38.9660107 C65.1302931,38.1090107 65.3842931,36.8870107 65.3842931,35.7770107 C65.3842931,33.7710107 64.5342931,32.0710107 62.8572931,30.7250107 C62.5022931,30.4390107 61.9802931,30.4960107 61.6942931,30.8530107 C61.4082931,31.2090107 61.4652931,31.7300107 61.8212931,32.0160107 C62.1472931,32.2780107 62.4302931,32.5530107 62.6712931,32.8420107 Z M39.2162931,46.3970107 C39.9242931,47.2450107 40.2722931,48.2130107 40.2722931,49.3320107 C40.2722931,49.7220107 40.2262931,50.1400107 40.1522931,50.5410107 C40.0632931,51.0160107 39.9342931,51.4670107 39.7712931,51.8080107 C39.5752931,52.2200107 39.7492931,52.7150107 40.1622931,52.9110107 C40.2772931,52.9660107 40.3982931,52.9920107 40.5182931,52.9920107 C40.8272931,52.9920107 41.1232931,52.8180107 41.2652931,52.5210107 C41.6742931,51.6640107 41.9282931,50.4430107 41.9282931,49.3320107 C41.9282931,47.3260107 41.0782931,45.6260107 39.4012931,44.2800107 C39.0452931,43.9940107 38.5242931,44.0510107 38.2382931,44.4080107 C37.9522931,44.7640107 38.0082931,45.2850107 38.3652931,45.5710107 C38.6912931,45.8330107 38.9742931,46.1080107 39.2162931,46.3970107 Z M54.8532931,46.3970107 C55.5622931,47.2450107 55.9102931,48.2130107 55.9102931,49.3320107 C55.9102931,49.7220107 55.8632931,50.1400107 55.7892931,50.5410107 C55.7012931,51.0160107 55.5712931,51.4670107 55.4092931,51.8080107 C55.2122931,52.2200107 55.3872931,52.7150107 55.7992931,52.9110107 C55.9142931,52.9660107 56.0362931,52.9920107 56.1552931,52.9920107 C56.4642931,52.9920107 56.7612931,52.8180107 56.9032931,52.5210107 C57.3112931,51.6640107 57.5652931,50.4430107 57.5652931,49.3320107 C57.5652931,47.3260107 56.7152931,45.6260107 55.0382931,44.2800107 C54.6832931,43.9940107 54.1612931,44.0510107 53.8752931,44.4080107 C53.5892931,44.7640107 53.6462931,45.2850107 54.0022931,45.5710107 C54.3292931,45.8330107 54.6112931,46.1080107 54.8532931,46.3970107 Z M70.4902931,46.3970107 C71.1992931,47.2450107 71.5472931,48.2130107 71.5472931,49.3320107 C71.5472931,49.7220107 71.5012931,50.1400107 71.4262931,50.5410107 C71.3382931,51.0170107 71.2092931,51.4670107 71.0462931,51.8080107 C70.8492931,52.2200107 71.0242931,52.7150107 71.4372931,52.9110107 C71.5522931,52.9660107 71.6732931,52.9920107 71.7932931,52.9920107 C72.1022931,52.9920107 72.3982931,52.8180107 72.5402931,52.5210107 C72.9492931,51.6640107 73.2022931,50.4430107 73.2022931,49.3320107 C73.2022931,47.3260107 72.3522931,45.6260107 70.6762931,44.2800107 C70.3202931,43.9940107 69.7982931,44.0510107 69.5122931,44.4080107 C69.2262931,44.7640107 69.2832931,45.2850107 69.6402931,45.5710107 C69.9662931,45.8330107 70.2492931,46.1080107 70.4902931,46.3970107 Z M47.0342931,59.9520107 C47.7432931,60.7990107 48.0912931,61.7680107 48.0912931,62.8870107 C48.0912931,63.2770107 48.0452931,63.6950107 47.9702931,64.0960107 C47.8822931,64.5720107 47.7532931,65.0220107 47.5902931,65.3630107 C47.3942931,65.7760107 47.5682931,66.2700107 47.9812931,66.4660107 C48.0962931,66.5210107 48.2172931,66.5470107 48.3372931,66.5470107 C48.6462931,66.5470107 48.9422931,66.3730107 49.0842931,66.0760107 C49.4932931,65.2200107 49.7472931,63.9980107 49.7472931,62.8870107 C49.7472931,60.8810107 48.8972931,59.1810107 47.2202931,57.8350107 C46.8642931,57.5490107 46.3432931,57.6060107 46.0562931,57.9620107 C45.7702931,58.3190107 45.8272931,58.8400107 46.1842931,59.1260107 C46.5102931,59.3880107 46.7922931,59.6630107 47.0342931,59.9520107 Z M62.8572931,57.8350107 C62.5022931,57.5490107 61.9802931,57.6060107 61.6942931,57.9620107 C61.4082931,58.3190107 61.4652931,58.8400107 61.8212931,59.1260107 C62.1472931,59.3880107 62.4302931,59.6630107 62.6712931,59.9520107 C63.3802931,60.7990107 63.7292931,61.7680107 63.7292931,62.8870107 C63.7292931,63.2770107 63.6822931,63.6950107 63.6082931,64.0960107 C63.5192931,64.5720107 63.3902931,65.0220107 63.2282931,65.3630107 C63.0312931,65.7760107 63.2052931,66.2700107 63.6182931,66.4660107 C63.7332931,66.5210107 63.8542931,66.5470107 63.9742931,66.5470107 C64.2832931,66.5470107 64.5792931,66.3730107 64.7212931,66.0760107 C65.1302931,65.2190107 65.3842931,63.9970107 65.3842931,62.8870107 C65.3842931,60.8810107 64.5342931,59.1810107 62.8572931,57.8350107 Z M55.0382931,71.3900107 C54.6832931,71.1040107 54.1612931,71.1610107 53.8752931,71.5170107 C53.5892931,71.8740107 53.6462931,72.3950107 54.0022931,72.6810107 C54.3292931,72.9430107 54.6112931,73.2180107 54.8532931,73.5070107 C55.5622931,74.3550107 55.9102931,75.3230107 55.9102931,76.4420107 C55.9102931,76.8320107 55.8632931,77.2500107 55.7892931,77.6510107 C55.7012931,78.1270107 55.5712931,78.5770107 55.4092931,78.9180107 C55.2122931,79.3310107 55.3872931,79.8250107 55.7992931,80.0210107 C55.9142931,80.0760107 56.0362931,80.1020107 56.1552931,80.1020107 C56.4642931,80.1020107 56.7612931,79.9280107 56.9032931,79.6310107 C57.3112931,78.7750107 57.5652931,77.5520107 57.5652931,76.4420107 C57.5652931,74.4360107 56.7152931,72.7360107 55.0382931,71.3900107 Z" id="path-1"></path>
    </defs>
    <g id="icons-/-Uvas" stroke="none" stroke-width="1" fill="none" fill-rule="evenodd">
        <mask id="mask-2" fill="white">
            <use xlink:href="#path-1"></use>
        </mask>
        <use id="Fill-10" fill="#FFFFFF" xlink:href="#path-1"></use>
        <rect id="Colors" fill="#363D46" fill-rule="nonzero" mask="url(#mask-2)" x="0" y="0" width="88" height="88"></rect>
    </g>
</svg>