<svg xmlns="http://www.w3.org/2000/svg" xmlns:xlink="http://www.w3.org/1999/xlink" width="88" height="88" viewBox="0 0 88 88">
    <defs>
        <path id="a" d="M51.449 10.46a16.976 16.976 0 0 1 13.465-2.609 16.967 16.967 0 0 1-7.173 11.691c-3.622 2.51-8.003 3.478-12.303 2.81l15.886-11.007a.826.826 0 0 0 .209-1.151.825.825 0 0 0-1.151-.209L44.496 20.992a16.943 16.943 0 0 1 6.953-10.532zm-7.767 73.537c-16.817 0-30.498-13.198-30.498-29.421 0-14.949 11.685-26.87 27.159-28.381.297.827.488 1.653.6 2.439-14.377 1.242-25.277 12.188-25.277 25.942 0 14.854 12.568 26.938 28.016 26.938 15.447 0 28.015-12.084 28.015-26.938 0-14.268-11.73-25.511-26.903-26.038.322 2.616.005 4.781-.114 5.442 1.904-.195 3.039-.911 3.039-1.33a.828.828 0 0 1 1.656 0c0 1.995-2.864 3.039-5.693 3.039-2.829 0-5.693-1.044-5.693-3.039a.827.827 0 1 1 1.655 0c0 .255.427.619 1.184.911.374.144.831.266 1.36.352 0-.087.009-.175.028-.263.045-.202.508-2.423.121-5.106a12.722 12.722 0 0 0-.598-2.453c-.963-2.724-3.064-5.452-7.452-6.788a1.242 1.242 0 1 1 .722-2.375c.657.199 1.262.431 1.837.68 2.226.965 3.86 2.272 5.047 3.736a19.435 19.435 0 0 1 8.142-12.925 19.455 19.455 0 0 1 16.572-2.693c.565.163.937.7.892 1.286a19.453 19.453 0 0 1-8.343 14.571 19.444 19.444 0 0 1-11.09 3.477c-1.426 0-2.857-.162-4.275-.478.197.487.364.976.502 1.462C61.1 26.34 74.18 38.761 74.18 54.576c0 16.223-13.681 29.421-30.498 29.421zm18.871-19.75c.149-.294.29-.609.426-.936 1.027-2.468 1.669-5.771 1.669-8.735 0-5.597-2.418-10.41-7.183-14.322a28.42 28.42 0 0 0-.812-.646.827.827 0 1 1 1.001-1.319c5.739 4.353 8.649 9.833 8.649 16.287 0 3.595-.892 7.684-2.272 10.417a.827.827 0 1 1-1.478-.746z"/>
    </defs>
    <g fill="none" fill-rule="evenodd">
        <mask id="b" fill="#fff">
            <use xlink:href="#a"/>
        </mask>
        <use fill="#FFF" xlink:href="#a"/>
        <path fill="#FFF" fill-rule="nonzero" d="M0 0h88v88H0z" mask="url(#b)"/>
    </g>
</svg>
