<svg xmlns="http://www.w3.org/2000/svg" xmlns:xlink="http://www.w3.org/1999/xlink" width="88" height="88" viewBox="0 0 88 88">
    <defs>
        <path id="a" d="M83.667 16.887c-.445.217-1.87.716-2.131.968-.785.755-.863 1.695-.952 3.013-.047 1.396-.412 4.159-.663 6.616a3.3 3.3 0 0 0 .618 2.283c1.667 2.28 2.738 4.684 2.164 11.141-1.237 13.915-14.358 29.198-37.718 30.527a62.975 62.975 0 0 1-3.574.103c-21.442 0-34.99-11.395-37.302-25.04-.357-2.101-.875-2.112.022-3.225.72-.618 1.205-.867 1.65-.867.708 0 1.316.63 2.61 1.404 9.114 5.447 20.31 6.921 28.626 6.921 2.267 0 4.32-.11 6.059-.278 11.53-1.118 19.52-5.816 23.643-13.511 2.833-5.287 5.098-7.057 8.967-8.42 1.837-.647 1.648-5.152 1.633-8.614-.001-.216-1.635-.581-1.768-.752-.388-.499-1.128-1.689.08-2.275 1.785-.867 4.34-1.246 5.914-1.246.148 0 .287.004.417.01 1.496.077 2.583.814 1.705 1.242zm-1.57-3.874c1.887.097 4.05.918 4.462 2.933.273 1.341-.425 2.671-1.737 3.31-.234.114-.53.233-.872.371-.164.066-.411.166-.618.254-.056.272-.092.777-.115 1.123-.04 1.049-.22 2.652-.412 4.347-.09.795-.182 1.614-.262 2.402a.666.666 0 0 0 .124.459c2.152 2.943 3.277 6.002 2.662 12.929-1.361 15.303-15.604 31.526-40.194 32.925-1.25.071-2.502.107-3.724.107-24.373 0-37.602-13.678-39.901-27.235a10.7 10.7 0 0 0-.265-1.155c-.338-1.23-.528-2.474.833-4.163l.152-.19.185-.158c.815-.699 1.934-1.502 3.366-1.501 1.292 0 2.223.628 3.045 1.183.282.19.574.388.919.594 9.53 5.696 21.177 6.547 27.272 6.547 2.032 0 3.985-.089 5.804-.266 10.55-1.023 17.81-5.105 21.575-12.132 2.866-5.348 5.422-7.804 9.966-9.498.298-.865.335-2.934.332-4.519-.458-.192-.868-.448-1.224-.906-.97-1.247-1.33-2.556-1.043-3.785.25-1.079.98-1.959 2.053-2.48C76.629 13.466 79.577 13 81.545 13c.196 0 .38.004.552.013zm-6.531 19.853c-2.934.533-4.483 3.569-4.548 3.698l-.04.091C67.309 46.7 57.763 53.573 44.789 55.51c-9.222 1.38-23.426.481-33.105-6.574a.878.878 0 1 0-1.035 1.419c7.603 5.543 17.827 7.454 26.492 7.454 2.854 0 5.54-.208 7.907-.561 13.607-2.032 23.649-9.296 27.562-19.934.162-.296 1.362-2.373 3.27-2.72a.878.878 0 0 0 .708-1.021.872.872 0 0 0-1.021-.707z"/>
    </defs>
    <g fill="none" fill-rule="evenodd">
        <mask id="b" fill="#fff">
            <use xlink:href="#a"/>
        </mask>
        <use fill="#FFF" xlink:href="#a"/>
        <path fill="#FFF" fill-rule="nonzero" d="M0 0h88v88H0z" mask="url(#b)"/>
    </g>
</svg>
