<svg xmlns="http://www.w3.org/2000/svg" xmlns:xlink="http://www.w3.org/1999/xlink" width="88" height="88" viewBox="0 0 88 88">
    <defs>
        <path id="a" d="M70.109 23.288l-17.026-4.791c3.443-1.346 7.442-1.523 11.317-.432 4.316 1.214 7.955 3.84 10.16 7.294-3.682 1.796-8.156 2.14-12.473.925-3.831-1.078-7.123-3.273-9.358-6.167L69.66 24.88a.829.829 0 0 0 .449-1.593zm-44.2 53.472C18.003 76.76 10 71.106 10 60.299c0-4.883 1.764-8.748 4.966-10.883 2.451-1.634 5.46-2.01 8.398-1.096a56.346 56.346 0 0 0-.398 2.483 8.134 8.134 0 0 0-2.712-.49 6.993 6.993 0 0 0-3.91 1.168c-2.49 1.66-3.861 4.792-3.861 8.818 0 6.946 4.612 13.978 13.426 13.978s13.425-7.032 13.425-13.978c0-4.026-1.371-7.157-3.861-8.818-2.03-1.353-4.61-1.54-7.079-.512a6.53 6.53 0 0 1-1.004.318c-.174 1.15-.236 1.83-.243 1.904 1.339-.22 2.058-.75 2.058-1.002a.724.724 0 1 1 1.448 0c0 1.676-2.387 2.552-4.744 2.552-2.358 0-4.745-.876-4.745-2.552a.724.724 0 1 1 1.448 0c0 .073.068.172.186.278.288.26.925.569 1.877.725-.004-.062-.009-.125-.004-.19.012-.147.063-.72.185-1.628.047-.355.11-.775.181-1.228.061-.38.128-.785.207-1.228 1.522-8.465 6.821-27.847 24.252-37.758.092-.053.188-.088.286-.115a1.238 1.238 0 0 1 1.406.58 1.241 1.241 0 0 1-.465 1.693 38.862 38.862 0 0 0-4.726 3.185l3.511.988c.023-.017.044-.036.069-.051 4.448-2.642 10.097-3.284 15.496-1.765 5.4 1.519 9.884 5.014 12.301 9.587a1.24 1.24 0 0 1-.463 1.647c-2.864 1.7-6.225 2.573-9.698 2.573-1.92 0-3.875-.267-5.798-.808-5.395-1.518-9.875-5.007-12.294-9.573l-2.003-.564c7.385 11.187 11.417 24.086 13.092 30.42a3.97 3.97 0 0 0 1.256-.281c3.247-1.352 6.677-1.083 9.411.74 3.202 2.135 4.966 6 4.966 10.883 0 10.807-8.003 16.46-15.909 16.46-7.905 0-15.908-5.653-15.908-16.46 0-4.883 1.763-8.748 4.966-10.883 1.95-1.301 4.255-1.795 6.595-1.49a101.505 101.505 0 0 1 .732 2.668 7.988 7.988 0 0 0-2.04-.281 6.996 6.996 0 0 0-3.91 1.168c-2.489 1.66-3.86 4.792-3.86 8.818 0 6.946 4.612 13.978 13.425 13.978 8.814 0 13.426-7.032 13.426-13.978 0-4.026-1.371-7.157-3.861-8.818-2.031-1.353-4.611-1.54-7.079-.512a6.534 6.534 0 0 1-1.596.43c.194.82.302 1.337.326 1.455.024.114.025.227.017.338 1.342-.22 2.064-.751 2.064-1.003a.724.724 0 1 1 1.448 0c0 1.676-2.387 2.552-4.745 2.552s-4.744-.876-4.744-2.552a.724.724 0 1 1 1.448 0c0 .059.052.137.129.219.251.268.899.612 1.916.78-.062-.285-.214-.96-.464-1.96a94.81 94.81 0 0 0-.766-2.886c-1.928-6.891-6.175-19.624-13.506-30.056-.012-.016-.018-.033-.029-.05a43 43 0 0 0-1.2 1.128c-9.71 9.444-13.47 22.332-14.84 29.158 3.116-1.154 6.362-.847 8.973.894 3.202 2.135 4.966 6 4.966 10.883 0 10.807-8.003 16.46-15.908 16.46zm8.936-10.93a.827.827 0 0 1-.4-1.1c.576-1.23.868-2.63.868-4.16 0-2.328-.763-4.251-2.148-5.415a.828.828 0 0 1 1.065-1.267c1.766 1.483 2.738 3.856 2.738 6.682 0 1.774-.344 3.41-1.023 4.862a.827.827 0 0 1-1.1.399z"/>
    </defs>
    <g fill="none" fill-rule="evenodd">
        <mask id="b" fill="#fff">
            <use xlink:href="#a"/>
        </mask>
        <use fill="#FFF" xlink:href="#a"/>
        <path fill="#FFF" fill-rule="nonzero" d="M0 0h88v88H0z" mask="url(#b)"/>
    </g>
</svg>
