<svg xmlns="http://www.w3.org/2000/svg" xmlns:xlink="http://www.w3.org/1999/xlink" width="117.854" height="120" viewBox="0 0 117.854195 120">
    <defs>
        <path id="a" d="M68.903 14.264c5.29-3.733 11.791-4.997 18.033-3.558-.866 6.458-4.316 12.21-9.606 15.942a22.378 22.378 0 0 1-16.477 3.832l21.275-15.01a1.14 1.14 0 0 0 .28-1.57 1.093 1.093 0 0 0-1.541-.284L59.59 28.626c1.183-5.808 4.46-10.94 9.312-14.362zM58.501 114.54c-22.522 0-40.844-17.997-40.844-40.12 0-20.384 15.649-36.64 36.372-38.7a17.17 17.17 0 0 1 .804 3.325c-19.254 1.694-33.852 16.62-33.852 35.376 0 20.255 16.831 36.733 37.52 36.733 20.688 0 37.52-16.478 37.52-36.733 0-19.457-15.71-34.788-36.03-35.507.43 3.568.006 6.52-.153 7.421 2.55-.266 4.07-1.242 4.07-1.813 0-.623.497-1.128 1.109-1.128s1.109.505 1.109 1.128c0 2.72-3.836 4.144-7.625 4.144s-7.624-1.424-7.624-4.144c0-.623.495-1.128 1.107-1.128s1.11.505 1.11 1.128c0 .347.571.844 1.585 1.242.5.196 1.113.363 1.821.48 0-.119.012-.239.038-.359.06-.275.68-3.304.162-6.962a17.61 17.61 0 0 0-.801-3.345c-1.29-3.715-4.103-7.435-9.98-9.257-.88-.272-1.374-1.217-1.108-2.112.267-.895 1.195-1.402 2.075-1.126.88.271 1.69.587 2.46.927 2.981 1.316 5.17 3.098 6.76 5.094 1.131-7.135 5.017-13.472 10.903-17.625C73.506 6.9 81.595 5.558 89.204 7.808a1.688 1.688 0 0 1 1.194 1.754c-.604 8.044-4.676 15.286-11.173 19.87-4.43 3.123-9.6 4.74-14.853 4.74-1.91 0-3.826-.22-5.725-.651.264.664.488 1.33.672 1.994 22.51.403 40.027 17.34 40.027 38.907 0 22.122-18.323 40.12-40.845 40.12zM83.774 87.61c.2-.401.389-.83.57-1.277 1.376-3.365 2.236-7.87 2.236-11.911 0-7.632-3.238-14.196-9.62-19.53a38.182 38.182 0 0 0-1.087-.881 1.142 1.142 0 0 1-.213-1.58 1.097 1.097 0 0 1 1.553-.219c7.686 5.936 11.583 13.409 11.583 22.21 0 4.902-1.194 10.478-3.042 14.205-.196.394-.586.62-.991.62-.168 0-.338-.038-.499-.121a1.139 1.139 0 0 1-.49-1.516z"/>
    </defs>
    <g fill="none" fill-rule="evenodd">
        <mask id="b" fill="#fff">
            <use xlink:href="#a"/>
        </mask>
        <use fill="#FFF" xlink:href="#a"/>
        <path fill="#363D46" fill-rule="nonzero" d="M0 0h117.854v120H0z" mask="url(#b)"/>
    </g>
</svg>
