<svg xmlns="http://www.w3.org/2000/svg" xmlns:xlink="http://www.w3.org/1999/xlink" width="88" height="88" viewBox="0 0 88 88">
    <defs>
        <path id="a" d="M44.148 16c15.52 0 28.147 12.627 28.147 28.148 0 15.52-12.627 28.148-28.147 28.148C28.627 72.296 16 59.668 16 44.148 16 28.627 28.627 16 44.148 16zm0 53.813c14.151 0 25.664-11.514 25.664-25.665S58.299 18.483 44.148 18.483c-14.152 0-25.665 11.514-25.665 25.665s11.513 25.665 25.665 25.665zm4.46-19.77c-.567-.196-1.111-.182-1.617.032-.463.215-.839.628-1.059 1.166l-.048.094a.73.73 0 0 1-.402.311l-.108.027a.675.675 0 0 1-.192.004l-.177-.044-.151-.083c-.034-.025-.075-.055-.115-.1-.212-.271-.422-.459-.643-.58-.227-.154-.441-.216-.737-.277a2.148 2.148 0 0 0-1.52.411l-.265-.323.177.375a.687.687 0 0 1-.519.046l-.112-.04a.763.763 0 0 1-.147-.094l-.138-.155-.074-.141c-.016-.046-.033-.092-.041-.152-.068-.616-.311-1.119-.691-1.446a2.117 2.117 0 0 0-1.505-.484l-.086-.002a.69.69 0 0 1-.49-.253l-.064-.084a.774.774 0 0 1-.074-.165l-.032-.171.018-.188a.774.774 0 0 1 .039-.134c.283-.576.35-1.131.203-1.607-.151-.502-.506-.935-1-1.221l-.087-.062a.74.74 0 0 1-.257-.427l-.016-.143a.749.749 0 0 1 .028-.175l.086-.187.102-.126a.648.648 0 0 1 .124-.1c.514-.302.869-.736 1.021-1.241.146-.472.079-1.028-.187-1.564l-.037-.09a.741.741 0 0 1 .02-.506l.05-.102a.77.77 0 0 1 .11-.14l.14-.108c.066-.038.117-.049.134-.053a.85.85 0 0 1 .212-.036c.601.032 1.123-.136 1.548-.485.38-.328.623-.831.685-1.418l.417.019-.399-.114a.725.725 0 0 1 .297-.419l.097-.059a.696.696 0 0 1 .165-.055l.175-.016.211.048c.028.011.076.03.128.064.489.348 1.02.489 1.555.43.295-.061.508-.123.7-.255.257-.143.467-.33.645-.565l.061-.066a.74.74 0 0 1 .496-.2l.112.006c.06.009.119.026.175.049l.28.216c.021.027.055.07.083.129.24.576.616.99 1.079 1.205.505.214 1.05.228 1.579.041l.105-.027a.702.702 0 0 1 .511.104l.093.07a.76.76 0 0 1 .121.141l.08.172.031.164a.617.617 0 0 1-.001.143c-.109.623-.018 1.173.255 1.59.309.455.761.763 1.309.892l-.071.411.164-.381a.695.695 0 0 1 .392.382l.036.099a.755.755 0 0 1 .022.166l-.08.342a.884.884 0 0 1-.086.133c-.429.472-.653.992-.642 1.512-.011.468.213.988.619 1.429l.064.083a.733.733 0 0 1 .119.481l-.018.112a.688.688 0 0 1-.068.169l-.14.174-.124.085a.747.747 0 0 1-.144.065c-.591.143-1.043.451-1.352.905-.273.418-.364.968-.258 1.55l.008.087a.745.745 0 0 1-.161.493l-.076.081a.704.704 0 0 1-.144.103l-.359.08a.683.683 0 0 1-.167-.027zm-1.799-1.372a3.714 3.714 0 0 1 1.29-.129c.034-.473.16-.877.329-1.245l-.056-.036.234-.346.225-.342.048.03c.275-.316.593-.599.991-.818a3.924 3.924 0 0 1-.441-1.224l-.007-.42s.007-.408.026-.408c.053-.403.192-.809.422-1.225a3.604 3.604 0 0 1-.991-.818l-.048.031-.226-.345-.233-.344.056-.036a3.537 3.537 0 0 1-.329-1.245 4.322 4.322 0 0 1-1.301-.103l-.372-.163s-.387-.168-.372-.201a3.64 3.64 0 0 1-.935-.897 4.951 4.951 0 0 1-1.151.635l-.41.051s-.41.058-.415.025a3.745 3.745 0 0 1-1.272-.245 4.947 4.947 0 0 1-.621 1.154l-.321.267-.312.266-.037-.043a3.585 3.585 0 0 1-1.185.506c.099.461.119.893.1 1.303l-.129.398s-.119.392-.148.384a3.519 3.519 0 0 1-.741 1.059c.319.317.564.668.77 1.05l.12.395s.128.395.089.407c.058.399.038.83-.061 1.291.447.098.832.281 1.185.506l.037-.043.314.268s.319.266.294.295c.263.303.479.679.646 1.124.434-.16.858-.242 1.277-.278l.411.059s.409.05.404.089c.39.114.777.313 1.156.597.291-.387.601-.683.92-.931l.388-.168s.371-.162.382-.137zm-3.012 4.89c.146-.343.555-.343.701 0 .349.825.833 2.007.833 2.961 0 1.492-1.077 1.57-1.183 1.57-.107 0-1.184-.078-1.184-1.57 0-.954.484-2.136.833-2.961zm.701-18.827c-.146.344-.555.344-.701 0-.349-.824-.833-2.007-.833-2.961 0-1.491 1.077-1.57 1.184-1.57.106 0 1.183.079 1.183 1.57 0 .954-.484 2.137-.833 2.961zm12.024 8.23c1.492 0 1.57 1.077 1.57 1.184 0 .106-.078 1.184-1.57 1.184-.954 0-2.137-.485-2.961-.834-.343-.145-.343-.555 0-.701.824-.349 2.007-.833 2.961-.833zm-21.788 1.534c-.824.349-2.007.834-2.961.834-1.492 0-1.57-1.078-1.57-1.184 0-.107.078-1.184 1.57-1.184.954 0 2.137.484 2.961.833.343.146.343.556 0 .701zm16.318 6.058c.829.336 2.008.83 2.683 1.505 1.055 1.055.348 1.872.273 1.947-.076.075-.893.782-1.947-.273-.675-.675-1.169-1.853-1.505-2.683-.14-.346.15-.636.496-.496zM37.243 37.739c-.829-.336-2.008-.83-2.683-1.504-1.054-1.055-.348-1.872-.272-1.947.075-.076.892-.782 1.947.273.674.674 1.168 1.853 1.504 2.682.14.346-.15.636-.496.496zm13.809 0c-.346.14-.636-.15-.496-.496.336-.829.83-2.008 1.505-2.682 1.054-1.055 1.871-.349 1.947-.273.075.075.782.892-.273 1.947-.675.674-1.854 1.168-2.683 1.504zM37.243 50.556c.346-.14.636.15.496.496-.336.83-.83 2.008-1.504 2.683-1.055 1.055-1.872.348-1.947.273-.076-.075-.782-.892.272-1.947.675-.675 1.854-1.169 2.683-1.505zm10.841 2.15c.639.627 1.54 1.533 1.906 2.414.573 1.378-.392 1.863-.49 1.904-.099.041-1.124.382-1.696-.995-.366-.881-.373-2.159-.367-3.054.003-.373.381-.53.647-.269zM40.211 35.59c-.639-.627-1.54-1.534-1.906-2.415-.573-1.377.392-1.863.491-1.904.098-.04 1.123-.382 1.695.996.367.881.373 2.159.367 3.054-.002.373-.381.53-.647.269zm12.495 4.621c.627-.639 1.533-1.54 2.414-1.906 1.377-.572 1.863.393 1.904.491.041.098.382 1.123-.995 1.696-.881.366-2.159.372-3.054.366-.373-.002-.531-.381-.269-.647zm-17.117 7.873c-.627.639-1.533 1.54-2.414 1.906-1.377.573-1.863-.392-1.904-.49-.041-.098-.382-1.124.995-1.696.881-.366 2.159-.373 3.054-.367.373.003.531.381.269.647zm20.449-.309c1.378.569 1.039 1.595.999 1.693-.041.099-.524 1.065-1.903.496-.882-.364-1.79-1.263-2.419-1.9-.262-.266-.105-.645.268-.648.895-.009 2.173-.005 3.055.359zm-23.78-7.254c-1.379-.57-1.04-1.596-1-1.694.041-.098.524-1.064 1.903-.495.882.364 1.79 1.263 2.419 1.9.262.266.105.644-.268.648-.895.008-2.173.005-3.054-.359zm15.805-4.941c-.265.262-.644.106-.647-.267-.009-.895-.005-2.173.359-3.055.569-1.379 1.595-1.04 1.693-1 .098.041 1.065.524.495 1.903-.364.882-1.263 1.79-1.9 2.419zm-7.831 17.136c.265-.262.644-.106.648.267.008.895.004 2.173-.36 3.055-.569 1.379-1.595 1.04-1.693.999-.098-.041-1.065-.524-.495-1.903.364-.882 1.263-1.79 1.9-2.418zm3.916 13.636c-12.244 0-22.205-9.961-22.205-22.204 0-12.244 9.961-22.205 22.205-22.205 12.243 0 22.204 9.961 22.204 22.205 0 12.243-9.961 22.204-22.204 22.204zm0-46.064c-13.157 0-23.86 10.703-23.86 23.86 0 13.156 10.703 23.859 23.86 23.859 13.155 0 23.859-10.703 23.859-23.859 0-13.157-10.704-23.86-23.859-23.86z"/>
    </defs>
    <g fill="none" fill-rule="evenodd">
        <mask id="b" fill="#fff">
            <use xlink:href="#a"/>
        </mask>
        <use fill="#FFF" xlink:href="#a"/>
        <path fill="#FFF" fill-rule="nonzero" d="M0 0h88v88H0z" mask="url(#b)"/>
    </g>
</svg>
