<svg xmlns="http://www.w3.org/2000/svg" xmlns:xlink="http://www.w3.org/1999/xlink" width="88" height="88" viewBox="0 0 88 88">
    <defs>
        <path id="a" d="M22.537 53.82c-.963-2.34-.942-4.717.054-6.205.758-1.13 2.016-1.703 3.739-1.703h12.474c.769 0 1.071.585 1.146.766.075.18.274.807-.269 1.352l-8.826 8.825c-1.214 1.215-2.503 1.698-3.842 1.438-1.738-.339-3.419-1.973-4.39-4.266l-.086-.207zm.054-11.436c-.996-1.488-1.017-3.864-.054-6.205l.087-.209c.97-2.29 2.651-3.925 4.39-4.264.233-.045.465-.068.697-.068 1.087 0 2.143.504 3.144 1.507l8.826 8.826c.543.543.344 1.17.269 1.35-.074.181-.377.766-1.146.766H26.33c-1.723 0-2.982-.573-3.739-1.703zm8.115-14.372c.34-1.737 1.974-3.419 4.267-4.388l.207-.087c1.148-.472 2.304-.708 3.36-.708 1.098 0 2.086.255 2.844.762 1.131.758 1.704 2.015 1.704 3.738v12.474c0 .77-.586 1.072-.766 1.147-.178.074-.807.276-1.352-.27l-8.826-8.825c-1.214-1.215-1.698-2.508-1.438-3.843zM44 41.984c.276.269.602.493.98.651a3.12 3.12 0 0 0 1.152.237c.006.383.077.771.233 1.148.156.378.382.704.651.98a3.095 3.095 0 0 0-.651.98 3.092 3.092 0 0 0-.233 1.152 3.094 3.094 0 0 0-1.152.233 3.093 3.093 0 0 0-.98.65 3.093 3.093 0 0 0-.98-.65 3.1 3.1 0 0 0-1.153-.233 3.092 3.092 0 0 0-.232-1.153 3.093 3.093 0 0 0-.65-.98c.268-.275.493-.601.65-.979.156-.377.227-.765.232-1.148.386-.006.775-.08 1.154-.237.378-.158.704-.382.98-.651zm.913-14.655c0-1.723.573-2.98 1.703-3.738.757-.507 1.746-.762 2.843-.762 1.057 0 2.213.236 3.362.708l.209.088c2.29.968 3.925 2.65 4.263 4.387.261 1.336-.223 2.628-1.438 3.843L47.03 40.68c-.543.546-1.171.344-1.35.27-.181-.075-.766-.378-.766-1.147V27.33zm15.377 4.309c.23 0 .463.023.697.068 1.737.34 3.418 1.973 4.388 4.264l.087.21c.963 2.34.942 4.716-.054 6.204-.757 1.13-2.015 1.703-3.738 1.703H49.197c-.77 0-1.073-.585-1.147-.766-.074-.18-.275-.807.268-1.35l8.826-8.826c1.003-1.003 2.057-1.507 3.146-1.507zm5.118 15.977c.996 1.488 1.017 3.865.054 6.205l-.087.21c-.97 2.29-2.651 3.924-4.388 4.263-1.334.258-2.627-.223-3.843-1.438l-8.826-8.825c-.543-.545-.342-1.173-.268-1.352.074-.181.378-.766 1.147-.766H61.67c1.723 0 2.981.573 3.738 1.703zm-8.115 14.372c-.338 1.737-1.972 3.419-4.263 4.388l-.21.087c-2.339.963-4.716.943-6.204-.054-1.13-.757-1.703-2.015-1.703-3.738V50.196c0-.77.585-1.072.764-1.146.085-.035.27-.098.497-.098.257 0 .568.08.855.367l8.826 8.826c1.215 1.214 1.7 2.507 1.438 3.842zm-14.205.683c0 1.723-.573 2.98-1.704 3.738-1.487.995-3.865 1.015-6.204.054l-.207-.087c-2.293-.97-3.927-2.65-4.267-4.388-.26-1.335.224-2.628 1.438-3.842l8.826-8.826c.288-.288.6-.367.855-.367.228 0 .412.063.497.098.18.074.766.377.766 1.146V62.67zM44 77c-17.645 0-32-14.356-32-32 0-17.645 14.355-32 32-32 17.644 0 32 14.355 32 32 0 17.644-14.356 32-32 32zm0-61.273C27.86 15.727 14.727 28.86 14.727 45c0 16.14 13.132 29.273 29.273 29.273 16.14 0 29.273-13.132 29.273-29.273 0-16.14-13.132-29.273-29.273-29.273zM26.664 60.083c-2.36-.46-4.498-2.457-5.719-5.343l-.095-.226c-1.208-2.94-1.125-5.898.226-7.913A5.39 5.39 0 0 1 22.756 45a5.39 5.39 0 0 1-1.68-1.601c-1.35-2.016-1.434-4.974-.226-7.913l.095-.227c1.221-2.885 3.359-4.883 5.719-5.344a5.445 5.445 0 0 1 2.31.06 5.448 5.448 0 0 1-.058-2.312c.46-2.36 2.46-4.498 5.344-5.718l.226-.094c2.94-1.209 5.898-1.125 7.913.225A5.415 5.415 0 0 1 44 23.755a5.415 5.415 0 0 1 1.601-1.68c2.016-1.35 4.974-1.433 7.913-.224l.227.094c2.884 1.22 4.883 3.358 5.342 5.718a5.408 5.408 0 0 1-.058 2.31 5.424 5.424 0 0 1 2.31-.057c2.362.46 4.5 2.459 5.72 5.343l.094.227c1.21 2.939 1.125 5.897-.225 7.913a5.415 5.415 0 0 1-1.679 1.6 5.415 5.415 0 0 1 1.68 1.602c1.349 2.015 1.434 4.973.224 7.913l-.095.228c-1.22 2.883-3.357 4.881-5.718 5.34a5.405 5.405 0 0 1-1.045.103 5.45 5.45 0 0 1-1.265-.158c.212.876.182 1.671.057 2.308-.459 2.361-2.457 4.499-5.342 5.72l-.227.094c-1.381.568-2.766.851-4.055.851-1.456 0-2.789-.36-3.858-1.077a5.403 5.403 0 0 1-1.6-1.679 5.403 5.403 0 0 1-1.602 1.68C41.33 68.64 39.996 69 38.541 69c-1.29 0-2.675-.283-4.055-.85l-.226-.095c-2.886-1.221-4.883-3.359-5.344-5.719a5.438 5.438 0 0 1 .058-2.31 5.464 5.464 0 0 1-1.265.16c-.38 0-.731-.042-1.045-.103z"/>
    </defs>
    <g fill="none" fill-rule="evenodd">
        <mask id="b" fill="#fff">
            <use xlink:href="#a"/>
        </mask>
        <use fill="#FFF" xlink:href="#a"/>
        <path fill="#FFF" fill-rule="nonzero" d="M0 0h88v88H0z" mask="url(#b)"/>
    </g>
</svg>
