<svg xmlns="http://www.w3.org/2000/svg" xmlns:xlink="http://www.w3.org/1999/xlink" width="88" height="88" viewBox="0 0 88 88">
    <defs>
        <path id="a" d="M34.668 5.834a13.931 13.931 0 0 1 10.865-2.182 13.925 13.925 0 0 1-5.86 9.405 13.91 13.91 0 0 1-9.684 2.371l12.865-8.914a.826.826 0 0 0 .209-1.151.825.825 0 0 0-1.151-.209l-12.866 8.914a13.913 13.913 0 0 1 5.622-8.234zm-13.716 61.07C8.767 66.904.957 47.35.765 36.702c-.115-6.441 2.162-11.916 6.247-15.02 2.552-1.94 5.546-2.965 8.659-2.965 3.747 0 7.097.88 9.69 2.543.096.524.158 1.032.196 1.52.037.471.052.921.05 1.34a8.035 8.035 0 0 1-1.579-.766c-2.192-1.409-5.082-2.154-8.357-2.154-2.566 0-5.04.85-7.157 2.459-3.448 2.619-5.367 7.357-5.266 12.999.097 5.403 2.164 12.439 5.266 17.923 2.078 3.675 6.457 9.84 12.438 9.84 3.772 0 6.283-1.999 6.556-2.227a1.241 1.241 0 0 1 1.589 0c.447.372 2.857 2.227 6.437 2.227 5.981 0 10.36-6.165 12.438-9.84 3.102-5.484 5.169-12.52 5.266-17.923.101-5.642-1.818-10.38-5.266-12.999-2.116-1.609-4.591-2.459-7.157-2.459-3.278 0-6.044.716-8.222 2.126a8.003 8.003 0 0 1-3.099 1.191 18.696 18.696 0 0 1-.274 2.971c2.064-.197 3.294-.985 3.294-1.443a.828.828 0 0 1 1.655 0c0 1.793-2.547 3.146-5.926 3.146-3.378 0-5.926-1.353-5.926-3.146a.827.827 0 1 1 1.655 0c0 .286.492.697 1.353 1.016.395.147.869.27 1.416.354a1.197 1.197 0 0 1 .024-.308c.031-.137.242-1.147.283-2.598a16.935 16.935 0 0 0-.124-2.555c-.463-3.6-2.348-8.077-8.509-9.953a1.241 1.241 0 1 1 .722-2.375c.542.165 1.047.353 1.535.551 2.597 1.051 4.452 2.536 5.765 4.206a16.398 16.398 0 0 1 6.817-10.59 16.413 16.413 0 0 1 13.98-2.272c.564.164.936.701.892 1.287a16.413 16.413 0 0 1-7.039 12.29 16.396 16.396 0 0 1-12.759 2.575c.591 1.481.904 2.973 1.053 4.339a5.59 5.59 0 0 0 1.863-.77c2.586-1.675 5.807-2.525 9.571-2.525 3.113 0 6.107 1.025 8.659 2.965 4.086 3.104 6.362 8.579 6.247 15.02-.192 10.648-8.002 30.202-20.187 30.202-3.406 0-5.935-1.33-7.242-2.217-1.266.832-3.893 2.217-7.34 2.217zm23.169-17.343a.828.828 0 0 1-.421-1.092c1.49-3.355 2.411-7.108 2.465-10.039.075-4.03-1.339-7.418-3.878-9.295a.828.828 0 1 1 .983-1.331c2.977 2.199 4.635 6.084 4.55 10.657-.059 3.187-1.009 7.079-2.607 10.679a.828.828 0 0 1-1.092.421z"/>
    </defs>
    <g fill="none" fill-rule="evenodd" transform="translate(16 11)">
        <mask id="b" fill="#fff">
            <use xlink:href="#a"/>
        </mask>
        <use fill="#FFF" xlink:href="#a"/>
        <path fill="#FFF" fill-rule="nonzero" d="M-16-11h88v88h-88z" mask="url(#b)"/>
    </g>
</svg>
