<svg xmlns="http://www.w3.org/2000/svg" xmlns:xlink="http://www.w3.org/1999/xlink" width="88" height="88" viewBox="0 0 88 88">
    <defs>
        <path id="a" d="M32.43 31.259c.293-.021.588-.032.886-.032-.331.285-.663.578-.983.877a31.238 31.238 0 0 0-4.122 4.785.826.826 0 0 0 .431 1.25c2.717.882 11.162-.566 15.075-4.157 3.167 2.907 9.303 4.409 12.967 4.408.864 0 1.59-.083 2.108-.251a.826.826 0 0 0 .431-1.25 31.238 31.238 0 0 0-4.122-4.785c-.32-.299-.652-.592-.996-.877 6.537 0 11.845 5.307 11.845 11.831 0 1.002-.14 2.032-.426 3.109-1.205 5.837-9.232 20.908-12.863 25.692-2.905 3.828-6.467 4.631-8.944 4.631-2.477 0-6.039-.803-8.945-4.631-3.632-4.786-11.659-19.858-12.873-25.741a11.817 11.817 0 0 1-.416-3.06c0-6.162 4.808-11.345 10.947-11.799zm9.381-3.907a.824.824 0 0 0 .806-.036.826.826 0 0 0 .394-.704c0-5.89-2.049-10.607-3.939-13.077.415-.396 1.279-.93 1.697-1.031 1.508 1.549 3.759 6.539 3.785 14.068a.826.826 0 0 0 1.193.739c3.791-1.866 10.612-.725 13.643-.076-1.711.997-4.949 1.598-9.12 1.653l-.135.002c-.4 0-.81.287-.882.681a.822.822 0 0 0 .316.8.808.808 0 0 0 .211.124c.294.109.587.245.878.393.35.178.696.381 1.036.606.326.214.646.443.958.688 1.877 1.467 3.494 3.379 4.406 4.557-2.778.098-8.201-.995-11.39-3.302a8.711 8.711 0 0 1-1.329-1.181.827.827 0 0 0-1.244 0 8.816 8.816 0 0 1-1.328 1.181c-3.189 2.308-8.613 3.405-11.391 3.302.912-1.178 2.528-3.09 4.405-4.557.313-.244.633-.474.959-.688.34-.224.686-.428 1.036-.606.292-.149.585-.285.88-.394a.823.823 0 0 0 .494-.915c-.066-.392-.437-.682-.835-.689l-.151-.002c-4.167-.055-7.404-.655-9.117-1.651 3.059-.649 9.969-1.794 13.764.115zM19 43.058c0-5.867 3.603-11 8.759-13.188-1.282-.56-2.223-1.274-2.817-2.142a1.654 1.654 0 0 1 .936-2.534c.397-.107 8.606-2.272 14.526-.926-.445-4.206-2.013-7.726-3.571-9.555a1.672 1.672 0 0 1-.282-.474c-.414-1.068.157-2.146 1.698-3.205 2.166-1.488 3.395-1.098 4.045-.509 2.052 1.866 4.244 6.86 4.649 13.759 5.928-1.4 14.219.803 14.616.91a1.655 1.655 0 0 1 .932 2.534c-.593.867-1.533 1.581-2.812 2.14 5.139 2.174 8.754 7.268 8.754 13.19 0 1.204-.164 2.434-.487 3.658-1.317 6.26-9.473 21.593-13.307 26.644-2.747 3.62-6.625 5.613-10.922 5.613-4.296 0-8.175-1.993-10.923-5.613-3.835-5.053-11.99-20.386-13.306-26.645A14.297 14.297 0 0 1 19 43.058zm19.855 5.13c.933 0 1.689-1.252 1.689-2.796 0-1.544-.756-2.796-1.689-2.796-.934 0-1.69 1.252-1.69 2.796 0 1.544.756 2.796 1.69 2.796zm9.724 0c.933 0 1.69-1.252 1.69-2.796 0-1.544-.757-2.796-1.69-2.796-.933 0-1.69 1.252-1.69 2.796 0 1.544.757 2.796 1.69 2.796zm-19.449 0c.933 0 1.69-1.252 1.69-2.796 0-1.544-.757-2.796-1.69-2.796-.933 0-1.689 1.252-1.689 2.796 0 1.544.756 2.796 1.689 2.796zm29.173 0c.934 0 1.69-1.252 1.69-2.796 0-1.544-.756-2.796-1.69-2.796-.933 0-1.689 1.252-1.689 2.796 0 1.544.756 2.796 1.689 2.796zm-14.586 7.697c.933 0 1.689-1.252 1.689-2.796 0-1.544-.756-2.796-1.689-2.796s-1.69 1.252-1.69 2.796c0 1.544.757 2.796 1.69 2.796zm9.724 0c.933 0 1.69-1.252 1.69-2.796 0-1.544-.757-2.796-1.69-2.796-.933 0-1.69 1.252-1.69 2.796 0 1.544.757 2.796 1.69 2.796zm-19.449 0c.934 0 1.69-1.252 1.69-2.796 0-1.544-.756-2.796-1.69-2.796-.933 0-1.689 1.252-1.689 2.796 0 1.544.756 2.796 1.689 2.796zm14.587 7.697c.933 0 1.69-1.252 1.69-2.796 0-1.545-.757-2.796-1.69-2.796-.933 0-1.69 1.251-1.69 2.796 0 1.544.757 2.796 1.69 2.796zm-9.724 0c.933 0 1.689-1.252 1.689-2.796 0-1.545-.756-2.796-1.689-2.796-.934 0-1.69 1.251-1.69 2.796 0 1.544.756 2.796 1.69 2.796zm4.862 7.697c.933 0 1.689-1.252 1.689-2.796 0-1.545-.756-2.797-1.689-2.797s-1.69 1.252-1.69 2.797c0 1.544.757 2.796 1.69 2.796z"/>
    </defs>
    <g fill="none" fill-rule="evenodd">
        <mask id="b" fill="#fff">
            <use xlink:href="#a"/>
        </mask>
        <use fill="#FFF" xlink:href="#a"/>
        <path fill="#FFF" fill-rule="nonzero" d="M0 0h88v88H0z" mask="url(#b)"/>
    </g>
</svg>
