<svg xmlns="http://www.w3.org/2000/svg" xmlns:xlink="http://www.w3.org/1999/xlink" width="88" height="88" viewBox="0 0 88 88">
    <defs>
        <path id="a" d="M26.703 50.828c2.391-3.644 5.102-7.775 5.801-14.849.47-4.756 2.011-8.178 4.58-10.17 2.165-1.679 4.598-1.941 5.905-1.941.583 0 .943.052.953.054.077.009.139.016.201.016.031 0 .059-.013.089-.016.035-.002.07.006.103.001.038-.005 3.73-.543 6.863 1.886 2.569 1.992 4.11 5.414 4.58 10.17.699 7.074 3.409 11.205 5.801 14.849 2.556 3.895 4.764 7.259 4.584 13.612-.306 10.755-9.156 17.981-22.022 17.981-12.866 0-21.716-7.226-22.022-17.981-.18-6.353 2.027-9.717 4.584-13.612zm35.981-33.359l-16.348-4.6c3.236-1.217 6.973-1.356 10.594-.337 4.087 1.15 7.536 3.63 9.638 6.89-3.494 1.686-7.729 2.002-11.817.852-3.622-1.019-6.738-3.086-8.864-5.812l16.348 4.6a.827.827 0 0 0 .449-1.593zM44.141 84.904c-14.086 0-24.162-8.386-24.504-20.394-.203-7.133 2.437-11.155 4.99-15.044 2.344-3.572 4.767-7.265 5.406-13.731.542-5.484 2.414-9.493 5.566-11.917 2.76-2.121 5.774-2.446 7.446-2.434.096-1.165.156-3.127-.223-5.268-.773-4.362-2.932-7.393-6.419-9.009a1.24 1.24 0 1 1 1.044-2.252c3.233 1.498 5.208 3.862 6.403 6.391 4.073-2.027 9.012-2.438 13.753-1.104 5.172 1.455 9.467 4.803 11.783 9.184.309.585.105 1.31-.464 1.648-2.743 1.628-5.964 2.464-9.29 2.464-1.839 0-3.711-.255-5.553-.774-3.322-.935-6.273-2.657-8.579-4.925.12 1.454.089 2.725.026 3.646 1.715.029 4.55.429 7.157 2.433 3.152 2.424 5.024 6.433 5.566 11.917.638 6.467 3.062 10.16 5.406 13.731 2.552 3.889 5.192 7.912 4.99 15.044-.342 12.008-10.418 20.394-24.504 20.394zm.458-7.535c8.04-.001 16.269-4.501 16.528-14.554a.827.827 0 0 0-.805-.849c-.459-.032-.838.349-.849.806-.231 8.94-7.637 12.941-14.874 12.942a.827.827 0 1 0 0 1.655zm.273-47.159l.336-.082c.063-.005.18-.013.332-.013 2.81 0 4.613 2.026 5.36 6.023a.829.829 0 0 0 1.627-.304c-1.139-6.095-4.428-7.375-6.987-7.375-.301 0-.507.023-.545.027a.774.774 0 0 0-.125.02l-.393.097a.828.828 0 0 0 .395 1.607z"/>
    </defs>
    <g fill="none" fill-rule="evenodd">
        <mask id="b" fill="#fff">
            <use xlink:href="#a"/>
        </mask>
        <use fill="#FFF" xlink:href="#a"/>
        <path fill="#FFF" fill-rule="nonzero" d="M0 0h88v88H0z" mask="url(#b)"/>
    </g>
</svg>
